<?xml version="1.0" encoding="UTF-8"?>
<svg width="16px" height="16px" viewBox="0 0 16 16" version="1.1" xmlns="http://www.w3.org/2000/svg" xmlns:xlink="http://www.w3.org/1999/xlink">
    <title>Icon / Outlined / Other / 计时器 / 16</title>
    <defs>
        <path d="M13.5,9 C13.5,12.0375661 11.0375661,14.5 8,14.5 C4.96243388,14.5 2.5,12.0375661 2.5,9 C2.5,5.96243388 4.96243388,3.5 8,3.5 C11.0375661,3.5 13.5,5.96243388 13.5,9 Z" id="path-1"></path>
    </defs>
    <g id="Icon-/-Outlined-/-Other-/-计时器-/-16" stroke="none" fill="none" xlink:href="#path-1" stroke-linecap="round" stroke-linejoin="round" stroke-width="1">
        <circle id="椭圆形" stroke="#1A1A1A" cx="8" cy="9" r="5.5"></circle>
        <line x1="11.5" y1="1.5" x2="4.5" y2="1.5" id="直线-2备份" stroke="#1A1A1A"></line>
        <line x1="7.68933983" y1="10" x2="9.81066017" y2="10" id="直线-2" stroke="#1A1A1A" transform="translate(8.75, 10) rotate(45) translate(-8.75, -10)"></line>
        <line x1="6.83333333" y1="8" x2="9.16666667" y2="8" id="直线-2" stroke="#1A1A1A" transform="translate(8, 8) rotate(90) translate(-8, -8)"></line>
        <line x1="7.5" y1="2.5" x2="8.5" y2="2.5" id="直线-2备份-2" stroke="#1A1A1A" transform="translate(8, 2.5) rotate(90) translate(-8, -2.5)"></line>
    </g>
</svg>