<?xml version="1.0" encoding="UTF-8"?>
<svg width="16px" height="16px" viewBox="0 0 16 16" version="1.1" xmlns="http://www.w3.org/2000/svg" xmlns:xlink="http://www.w3.org/1999/xlink">
    <title>Icon / Outlined / Operations / 双箭头 朝左 / 16</title>
    <defs>
        <path d="M16,16 L0,16 L0,0 L16,0 Z" id="path-1"></path>
    </defs>
    <g id="Icon-/-Outlined-/-Operations-/-双箭头-朝左-/-16" stroke="none" fill="none" xlink:href="#path-1">
        <polygon id="矩形" points="16 16 16 0 1.77635684e-15 0 0 16"></polygon>
        <path d="M4.18932077,8.58545391 C3.93689308,8.23593864 3.93689308,7.76398808 4.18932077,7.41447281 L7.22789363,3.20721808 C7.38957238,2.9833552 7.70211563,2.93294499 7.92597852,3.09462375 C8.14984141,3.2563025 8.20025161,3.56884575 8.03857286,3.79270864 L5,7.99996336 L8.03857286,12.2072181 C8.20025161,12.431081 8.14984141,12.7436242 7.92597852,12.905303 C7.70211563,13.0669817 7.38957238,13.0165715 7.22789363,12.7927086 L4.18932077,8.58545391 Z" id="路径" fill="#1A1A1A" fill-rule="nonzero"></path>
        <path d="M8.18932077,8.58545391 C7.93689308,8.23593864 7.93689308,7.76398808 8.18932077,7.41447281 L11.2278936,3.20721808 C11.3895724,2.9833552 11.7021156,2.93294499 11.9259785,3.09462375 C12.1498414,3.2563025 12.2002516,3.56884575 12.0385729,3.79270864 L9,7.99996336 L12.0385729,12.2072181 C12.2002516,12.431081 12.1498414,12.7436242 11.9259785,12.905303 C11.7021156,13.0669817 11.3895724,13.0165715 11.2278936,12.7927086 L8.18932077,8.58545391 Z" id="路径" fill="#1A1A1A" fill-rule="nonzero"></path>
    </g>
</svg>