<?xml version="1.0" encoding="UTF-8"?>
<svg width="20px" height="20px" viewBox="0 0 20 20" version="1.1" xmlns="http://www.w3.org/2000/svg" xmlns:xlink="http://www.w3.org/1999/xlink">
    <title>Icon / Outlined / Operations / 双箭头 朝左 / 20</title>
    <defs>
        <path d="M20,20 L0,20 L0,0 L20,0 Z" id="path-1"></path>
    </defs>
    <g id="Icon-/-Outlined-/-Operations-/-双箭头-朝左-/-20" stroke="none" fill="none" xlink:href="#path-1">
        <polygon id="矩形" points="20 20 20 0 0 0 0 20"></polygon>
        <path d="M5.23665096,10.7318174 C4.92111635,10.2949233 4.92111635,9.7049851 5.23665096,9.26809101 L9.03486703,4.0090226 C9.23696547,3.72919399 9.62764454,3.66618124 9.90747315,3.86827968 C10.1873018,4.07037812 10.2503145,4.46105719 10.0482161,4.7408858 L6.25,9.9999542 L10.0482161,15.2590226 C10.2503145,15.5388512 10.1873018,15.9295303 9.90747315,16.1316287 C9.62764454,16.3337272 9.23696547,16.2707144 9.03486703,15.9908858 L5.23665096,10.7318174 Z" id="路径" fill="#1A1A1A" fill-rule="nonzero"></path>
        <path d="M10.236651,10.7318174 C9.92111635,10.2949233 9.92111635,9.7049851 10.236651,9.26809101 L14.034867,4.0090226 C14.2369655,3.72919399 14.6276445,3.66618124 14.9074731,3.86827968 C15.1873018,4.07037812 15.2503145,4.46105719 15.0482161,4.7408858 L11.25,9.9999542 L15.0482161,15.2590226 C15.2503145,15.5388512 15.1873018,15.9295303 14.9074731,16.1316287 C14.6276445,16.3337272 14.2369655,16.2707144 14.034867,15.9908858 L10.236651,10.7318174 Z" id="路径" fill="#1A1A1A" fill-rule="nonzero"></path>
    </g>
</svg>