<?xml version="1.0" encoding="UTF-8"?>
<svg width="24px" height="24px" viewBox="0 0 24 24" version="1.1" xmlns="http://www.w3.org/2000/svg" xmlns:xlink="http://www.w3.org/1999/xlink">
    <title>Icon / Outlined / Operations / 双箭头 朝左 / 24</title>
    <defs>
        <path d="M24,24 L0,24 L0,-4.54747351e-13 L24,-4.54747351e-13 Z" id="path-1"></path>
    </defs>
    <g id="Icon-/-Outlined-/-Operations-/-双箭头-朝左-/-24" stroke="none" fill="none" xlink:href="#path-1">
        <polygon id="矩形" points="0 24 1.46957616e-15 -4.54747351e-13 24 -4.54747351e-13 24 24"></polygon>
        <path d="M6.28398116,12.8781809 C5.90533961,12.353908 5.90533961,11.6459821 6.28398116,11.1217092 L10.8418404,4.81082712 C11.0843586,4.47503279 11.5531734,4.39941749 11.8889678,4.64193562 C12.2247621,4.88445375 12.3003774,5.35326862 12.0578593,5.68906296 L7.5,11.999945 L12.0578593,18.3108271 C12.3003774,18.6466215 12.2247621,19.1154363 11.8889678,19.3579545 C11.5531734,19.6004726 11.0843586,19.5248573 10.8418404,19.189063 L6.28398116,12.8781809 Z" id="路径" fill="#1A1A1A" fill-rule="nonzero"></path>
        <path d="M12.2839812,12.8781809 C11.9053396,12.353908 11.9053396,11.6459821 12.2839812,11.1217092 L16.8418404,4.81082712 C17.0843586,4.47503279 17.5531734,4.39941749 17.8889678,4.64193562 C18.2247621,4.88445375 18.3003774,5.35326862 18.0578593,5.68906296 L13.5,11.999945 L18.0578593,18.3108271 C18.3003774,18.6466215 18.2247621,19.1154363 17.8889678,19.3579545 C17.5531734,19.6004726 17.0843586,19.5248573 16.8418404,19.189063 L12.2839812,12.8781809 Z" id="路径" fill="#1A1A1A" fill-rule="nonzero"></path>
    </g>
</svg>