<?xml version="1.0" encoding="UTF-8"?>
<svg width="16px" height="16px" viewBox="0 0 16 16" version="1.1" xmlns="http://www.w3.org/2000/svg" xmlns:xlink="http://www.w3.org/1999/xlink">
    <title>Icon / Outlined / Data / 深度研究 / 16</title>
    <defs>
        <path d="M1.40005,2.5001 L3.80005,2.5001 C3.91055,2.5001 4.00005,2.5896 4.00005,2.7001 L4.00005,3.2996 C4.00005,3.4106 3.91055,3.5001 3.80005,3.5001 L2.00005,3.5001 L2.00005,10.5001 L14.00005,10.5001 L14.00005,3.5001 L12.20005,3.5001 C12.08955,3.5001 12.00005,3.4106 12.00005,3.2996 L12.00005,2.7001 C12.00005,2.5896 12.08955,2.5001 12.20005,2.5001 L14.60005,2.5001 C14.82105,2.5001 15.00005,2.6791 15.00005,2.9006 L15.00005,11.1001 C15.00005,11.3206 14.82105,11.5001 14.60005,11.5001 L8.50005,11.5001 L8.50005,13.5001 L11.30005,13.5001 C11.41055,13.5001 11.50005,13.5896 11.50005,13.7001 L11.50005,14.2996 C11.50005,14.4106 11.41055,14.5001 11.30005,14.5001 L4.70005,14.5001 C4.58955,14.5001 4.50005,14.4106 4.50005,14.2996 L4.50005,13.7001 C4.50005,13.5896 4.58955,13.5001 4.70005,13.5001 L7.50005,13.5001 L7.50005,11.5001 L1.40005,11.5001 C1.17905,11.5001 1.00005,11.3206 1.00005,11.1001 L1.00005,2.9006 C1.00005,2.6791 1.17905,2.5001 1.40005,2.5001 Z M9.1105,1.4575 C9.337,1.4425 9.5435,1.573 9.621,1.784 L10.983,5.5 L12.8,5.5 C12.9105,5.5 13,5.5895 13,5.7 L13,6.3 C13,6.4105 12.9105,6.5 12.8,6.5 L10.6335,6.5 C10.424,6.5 10.2365,6.369 10.164,6.1725 L9.3055,3.83 L8.444,8.3825 C8.403,8.5985 8.226,8.7625 8.007,8.7865 C7.989,8.7885 7.9705,8.7895 7.9525,8.7895 C7.7545,8.7895 7.573,8.672 7.493,8.4875 L6.3035,5.717 L5.694,6.3475 C5.6,6.445 5.4705,6.5 5.335,6.5 L3.2,6.5 C3.0895,6.5 3,6.4105 3,6.3 L3,5.7 C3,5.5895 3.0895,5.5 3.2,5.5 L5.1225,5.5 L6.106,4.4815 C6.2225,4.361 6.3915,4.3055 6.556,4.337 C6.7205,4.3665 6.859,4.4775 6.9255,4.6315 L7.766,6.588 L8.6605,1.8635 C8.702,1.642 8.8865,1.476 9.1105,1.4575 Z" id="path-1"></path>
    </defs>
    <g id="Icon-/-Outlined-/-Data-/-深度研究-/-16" stroke="none" fill="none" xlink:href="#path-1" fill-rule="evenodd">
        <path d="M1.40005,2.5001 L3.80005,2.5001 C3.91055,2.5001 4.00005,2.5896 4.00005,2.7001 L4.00005,3.2996 C4.00005,3.4106 3.91055,3.5001 3.80005,3.5001 L2.00005,3.5001 L2.00005,10.5001 L14.00005,10.5001 L14.00005,3.5001 L12.20005,3.5001 C12.08955,3.5001 12.00005,3.4106 12.00005,3.2996 L12.00005,2.7001 C12.00005,2.5896 12.08955,2.5001 12.20005,2.5001 L14.60005,2.5001 C14.82105,2.5001 15.00005,2.6791 15.00005,2.9006 L15.00005,11.1001 C15.00005,11.3206 14.82105,11.5001 14.60005,11.5001 L8.50005,11.5001 L8.50005,13.5001 L11.30005,13.5001 C11.41055,13.5001 11.50005,13.5896 11.50005,13.7001 L11.50005,14.2996 C11.50005,14.4106 11.41055,14.5001 11.30005,14.5001 L4.70005,14.5001 C4.58955,14.5001 4.50005,14.4106 4.50005,14.2996 L4.50005,13.7001 C4.50005,13.5896 4.58955,13.5001 4.70005,13.5001 L7.50005,13.5001 L7.50005,11.5001 L1.40005,11.5001 C1.17905,11.5001 1.00005,11.3206 1.00005,11.1001 L1.00005,2.9006 C1.00005,2.6791 1.17905,2.5001 1.40005,2.5001 Z M9.1105,1.4575 C9.337,1.4425 9.5435,1.573 9.621,1.784 L10.983,5.5 L12.8,5.5 C12.9105,5.5 13,5.5895 13,5.7 L13,6.3 C13,6.4105 12.9105,6.5 12.8,6.5 L10.6335,6.5 C10.424,6.5 10.2365,6.369 10.164,6.1725 L9.3055,3.83 L8.444,8.3825 C8.403,8.5985 8.226,8.7625 8.007,8.7865 C7.989,8.7885 7.9705,8.7895 7.9525,8.7895 C7.7545,8.7895 7.573,8.672 7.493,8.4875 L6.3035,5.717 L5.694,6.3475 C5.6,6.445 5.4705,6.5 5.335,6.5 L3.2,6.5 C3.0895,6.5 3,6.4105 3,6.3 L3,5.7 C3,5.5895 3.0895,5.5 3.2,5.5 L5.1225,5.5 L6.106,4.4815 C6.2225,4.361 6.3915,4.3055 6.556,4.337 C6.7205,4.3665 6.859,4.4775 6.9255,4.6315 L7.766,6.588 L8.6605,1.8635 C8.702,1.642 8.8865,1.476 9.1105,1.4575 Z" id="形状结合" fill="#1A1A1A"></path>
    </g>
</svg>