<?xml version="1.0" encoding="UTF-8"?>
<svg width="36px" height="36px" viewBox="0 0 36 36" version="1.1" xmlns="http://www.w3.org/2000/svg" xmlns:xlink="http://www.w3.org/1999/xlink">
    <title>App/Icon buttons 图标/拍照</title>
    <g id="App/Icon-buttons-图标/拍照" stroke="none" fill="none" fill-rule="evenodd">
        <path d="M18,36 C27.9411255,36 36,27.9411255 36,18 C36,8.0588745 27.9411255,0 18,0 C8.0588745,0 0,8.0588745 0,18 C0,27.9411255 8.0588745,36 18,36 Z" id="Fill-1备份" fill="#F8F8F8"></path>
        <g id="编组" stroke-width="1" transform="translate(8.1447, 8.5151)" fill="#1A1A1A">
            <path d="M14.7837209,0 L5.6860465,0 C2.54572973,0 0,2.54572973 0,5.6860465 L0,14.7837209 C0,17.9240377 2.54572973,20.4697674 5.6860465,20.4697674 L14.7837209,20.4697674 C17.9240377,20.4697674 20.4697674,17.9240377 20.4697674,14.7837209 L20.4697674,5.6860465 C20.4697674,2.54572973 17.9240377,0 14.7837209,0 Z M10.2348837,14.7837209 C7.7226303,14.7837209 5.6860465,12.7471371 5.6860465,10.2348837 C5.6860465,7.7226303 7.7226303,5.6860465 10.2348837,5.6860465 C12.7471371,5.6860465 14.7837209,7.72263032 14.7837209,10.2348837 C14.7837209,12.7471371 12.7471371,14.7837209 10.2348837,14.7837209 Z M14.7837209,6.82325583 C14.3773937,6.82331802 14.0019053,6.60658076 13.7987237,6.25470143 C13.5955421,5.9028221 13.5955421,5.46927093 13.7987237,5.1173916 C14.0019053,4.76551227 14.3773937,4.54877501 14.7837209,4.5488372 C15.4117163,4.54893336 15.9207562,5.05805114 15.9207562,5.68604652 C15.9207562,6.31404189 15.4117163,6.82315967 14.7837209,6.82325583 L14.7837209,6.82325583 Z" id="形状" fill-rule="nonzero"></path>
            <path d="M10.2348837,12.5093023 C11.0474552,12.5093023 11.7983023,12.0758006 12.2045881,11.372093 C12.6108738,10.6683855 12.6108738,9.80138198 12.2045881,9.0976744 C11.7983023,8.39396683 11.0474552,7.96046513 10.2348837,7.96046513 C8.97875702,7.96046513 7.96046513,8.97875702 7.96046513,10.2348837 C7.96046513,11.4910104 8.97875702,12.5093023 10.2348837,12.5093023 L10.2348837,12.5093023 Z" id="路径" fill-rule="nonzero"></path>
        </g>
    </g>
</svg>