<?xml version="1.0" encoding="UTF-8"?>
<svg width="36px" height="36px" viewBox="0 0 36 36" version="1.1" xmlns="http://www.w3.org/2000/svg" xmlns:xlink="http://www.w3.org/1999/xlink">
    <title>App/Icon buttons 图标/文件</title>
    <g id="App/Icon-buttons-图标/文件" stroke="none" fill="none">
        <path d="M18,36 C27.9411255,36 36,27.9411255 36,18 C36,8.0588745 27.9411255,0 18,0 C8.0588745,0 0,8.0588745 0,18 C0,27.9411255 8.0588745,36 18,36 Z" id="Fill-1备份-2" fill="#F8F8F8" fill-rule="evenodd"></path>
        <g id="编组" stroke-width="1" fill-rule="evenodd" transform="translate(8.1447, 8.1442)" fill="#1A1A1A">
            <path d="M3.28508881,0.00109503816 C1.47078436,0.00109503816 0,1.4718794 0,3.28618385 L0,15.3315095 C0,17.7505821 1.96104582,19.7116279 4.38011842,19.7116279 L15.3304145,19.7116279 C17.7494871,19.7116279 19.7105329,17.7505821 19.7105329,15.3315095 L19.7105329,5.47624305 C19.7105329,4.87147491 19.2202714,4.38121348 18.6155033,4.38121346 L13.1403552,4.38121346 C12.3125129,4.38121346 12.0475157,4.11293122 11.393783,2.80765592 C10.4071614,0.82784238 9.57712892,3.64718124e-16 7.66630227,3.64718124e-16 L3.28618385,3.64718124e-16 L3.28508881,0.00109503816 Z M3.28508881,2.19115424 L7.66520724,2.19115424 C8.49195458,2.19115424 8.75695176,2.45943648 9.40958939,3.76580682 C9.55194325,4.0505145 9.61107485,4.14249699 9.75233367,4.38121346 L2.19005922,4.38121346 L2.19005922,3.28618385 C2.19005922,2.6814157 2.68032067,2.19115424 3.28508881,2.19115424 L3.28508881,2.19115424 Z" id="形状" fill-rule="nonzero"></path>
        </g>
        <line x1="18.05" y1="17" x2="18.05" y2="23" id="路径" stroke="#FFFFFF" stroke-width="2.054" stroke-linecap="square" stroke-linejoin="round"></line>
        <line x1="15" y1="20.05" x2="21" y2="20.05" id="路径" stroke="#FFFFFF" stroke-width="2.054" stroke-linecap="square" stroke-linejoin="round"></line>
    </g>
</svg>