<?xml version="1.0" encoding="UTF-8"?>
<svg width="36px" height="36px" viewBox="0 0 36 36" version="1.1" xmlns="http://www.w3.org/2000/svg" xmlns:xlink="http://www.w3.org/1999/xlink">
    <title>App/Icon buttons 图标/对话框/发送/橙</title>
    <g id="App/Icon-buttons-图标/对话框/发送/橙" stroke="none" fill="none" fill-rule="evenodd">
        <path d="M18,36 C27.9411255,36 36,27.9411255 36,18 C36,8.0588745 27.9411255,0 18,0 C8.0588745,0 0,8.0588745 0,18 C0,27.9411255 8.0588745,36 18,36 Z" id="Fill-1" fill="#EDC487" opacity="0"></path>
        <g id="编组" stroke-width="1" transform="translate(4, 4)" fill="#0000FF" fill-opacity="0">
            <polygon id="Fill-1" points="0 28 28 28 28 0 0 0"></polygon>
        </g>
        <path d="M18,34 C26.83656,34 34,26.83656 34,18 C34,9.16344 26.83656,2 18,2 C9.16344,2 2,9.16344 2,18 C2,26.83656 9.16344,34 18,34 Z" id="路径备份" fill="#FF5500"></path>
        <g id="编组" stroke-width="1" transform="translate(11.9593, 10.6782)" fill="#FFFFFF">
            <path d="M13.6578661,8.76539558 L2.34329728,14.4758177 C1.54061295,14.8683188 0.571980979,14.5482299 0.164598366,13.7620195 C-0.0147114868,13.3823314 -0.0510823195,12.9538072 0.0730580869,12.5540392 L1.31047179,8.52579105 C1.423776,8.15693919 1.7644757,7.90518054 2.15035065,7.90518054 L6.48098745,7.90518054 L6.48098745,6.73380909 L2.15353561,6.73380909 C1.7661414,6.73380909 1.42447156,6.48009187 1.31244867,6.10924483 L0.0913624818,2.06662769 C-0.164111958,1.22349065 0.318153935,0.32421403 1.17155974,0.0716316847 C1.56656858,-0.0525453305 1.99388468,-0.0148565814 2.36160167,0.181458054 L13.6578661,5.89188014 C14.4469686,6.29492461 14.7645498,7.26472806 14.3535979,8.05159739 C14.2069431,8.36610351 13.9571247,8.61540937 13.6578661,8.76539558 Z" id="路径" fill-rule="nonzero"></path>
        </g>
    </g>
</svg>