<?xml version="1.0" encoding="UTF-8"?>
<svg width="36px" height="36px" viewBox="0 0 36 36" version="1.1" xmlns="http://www.w3.org/2000/svg" xmlns:xlink="http://www.w3.org/1999/xlink">
    <title>App/Icon buttons 图标/对话框/添加置灰</title>
    <g id="App/Icon-buttons-图标/对话框/添加置灰" stroke="none" fill="none">
        <path d="M18,36 C27.9411255,36 36,27.9411255 36,18 C36,8.0588745 27.9411255,0 18,0 C8.0588745,0 0,8.0588745 0,18 C0,27.9411255 8.0588745,36 18,36 Z" id="Fill-1" fill="#F8F8F8" fill-rule="evenodd"></path>
        <path d="M17.9441648,30 C24.5715848,30 29.9441648,24.62742 29.9441648,18 C29.9441648,11.37258 24.5715848,6 17.9441648,6 C11.3167448,6 5.9441648,11.37258 5.9441648,18 C5.9441648,24.62742 11.3167448,30 17.9441648,30 Z" id="路径备份-2" stroke="#1A1A1A" stroke-width="1.4" opacity="0.2" stroke-linecap="round" stroke-linejoin="round"></path>
        <path d="M18.7440648,12.5410818 L18.7431466,17.1990818 L23.402983,17.2 L23.402983,18.8 L18.7431466,18.7990818 L18.7440648,23.4589182 L17.1440648,23.4589182 L17.1431466,18.7990818 L12.4851466,18.8 L12.4851466,17.2 L17.1431466,17.1990818 L17.1440648,12.5410818 L18.7440648,12.5410818 Z" id="形状结合" fill="#1A1A1A" fill-rule="nonzero" opacity="0.204706101"></path>
    </g>
</svg>