<?xml version="1.0" encoding="UTF-8"?>
<svg width="36px" height="36px" viewBox="0 0 36 36" version="1.1" xmlns="http://www.w3.org/2000/svg" xmlns:xlink="http://www.w3.org/1999/xlink">
    <title>App/Icon buttons 图标/对话框/添加</title>
    <g id="App/Icon-buttons-图标/对话框/添加" stroke="none" fill="none">
        <g id="语音切换备份" stroke-width="1" fill-rule="evenodd" fill="#F8F8F8">
            <path d="M18,36 C27.9411255,36 36,27.9411255 36,18 C36,8.0588745 27.9411255,0 18,0 C8.0588745,0 0,8.0588745 0,18 C0,27.9411255 8.0588745,36 18,36 Z" id="Fill-1"></path>
        </g>
        <path d="M17.9441648,30 C24.5715848,30 29.9441648,24.62742 29.9441648,18 C29.9441648,11.37258 24.5715848,6 17.9441648,6 C11.3167448,6 5.9441648,11.37258 5.9441648,18 C5.9441648,24.62742 11.3167448,30 17.9441648,30 Z" id="路径备份-2" stroke="#1A1A1A" stroke-width="1.4" stroke-linecap="round" stroke-linejoin="round"></path>
        <line x1="17.9440648" y1="13.3410818" x2="17.9440648" y2="22.6589182" id="路径" stroke="#1A1A1A" stroke-width="1.6" stroke-linecap="square" stroke-linejoin="round"></line>
        <line x1="13.2851466" y1="18" x2="22.602983" y2="18" id="路径" stroke="#1A1A1A" stroke-width="1.6" stroke-linecap="square" stroke-linejoin="round"></line>
    </g>
</svg>