<?xml version="1.0" encoding="UTF-8"?>
<svg width="36px" height="36px" viewBox="0 0 36 36" version="1.1" xmlns="http://www.w3.org/2000/svg" xmlns:xlink="http://www.w3.org/1999/xlink">
    <title>App/Icon buttons 图标/相册</title>
    <g id="App/Icon-buttons-图标/相册" stroke="none" fill="none" fill-rule="evenodd">
        <path d="M18,36 C27.9411255,36 36,27.9411255 36,18 C36,8.0588745 27.9411255,0 18,0 C8.0588745,0 0,8.0588745 0,18 C0,27.9411255 8.0588745,36 18,36 Z" id="Fill-1" fill="#F8F8F8"></path>
        <g id="编组" stroke-width="1" transform="translate(8.1447, 8.1442)">
            <path d="M0.438036184,2.40919897 C0.876072369,1.53312663 1.53312663,0.876072369 2.29968992,0.547545211 C3.28527132,0 4.59937984,0 7.00857882,0 L12.7030491,0 C15.1122481,0 16.4263566,0 17.3024289,0.438036184 C18.1785013,0.876072369 18.8355555,1.53312663 19.1640827,2.29968992 C19.7116279,3.28527132 19.7116279,4.59937984 19.7116279,7.00857882 L19.7116279,10.8413953 C19.7116279,11.3889406 19.7116279,11.6079587 19.6021189,11.8269767 C19.4926098,11.9364858 19.3831008,12.0459948 19.1640827,12.0459948 C18.9450646,12.0459948 18.7260465,11.9364858 18.2880103,11.6079587 L15.2217571,9.52728682 L15.1122481,9.41777777 C14.6742119,9.08925064 14.2361757,8.87023256 13.7981395,8.76072351 C13.3601034,8.65121445 12.9220672,8.65121445 12.484031,8.76072351 C12.0459948,8.87023256 11.6079587,9.19875969 11.1699225,9.52728682 L11.0604134,9.63679587 L8.32268735,11.6079587 C7.77514214,11.9364858 7.66563308,12.0459948 7.66563308,12.0459948 L7.44661498,12.0459948 C7.44661498,12.0459948 7.33710593,12.0459948 6.78956071,11.7174677 L6.2420155,11.3889406 L6.13250645,11.3889406 C5.80397932,11.1699225 5.36594314,11.0604134 4.92790698,10.9509044 C4.59937984,10.8413953 4.16134366,10.9509044 3.83281653,11.0604134 C3.39478034,11.1699225 3.06625321,11.3889406 2.73772611,11.6079587 L2.62821705,11.6079587 L0.547545211,12.9220672 C0.328527132,13.0315762 0.109509027,12.9220672 0.109509052,12.7030491 L0.109509052,7.00857882 C0.0365030175,4.52637382 0.146012061,2.9932472 0.438036184,2.40919897 Z" id="路径" fill="#1A1A1A" fill-rule="nonzero"></path>
            <path d="M0.547545211,15.4407752 C0.328527132,15.5502842 0.328527132,15.5502842 0.219018079,15.6597933 C0.219018079,15.7693023 0.109509052,15.7693023 0.109509052,15.8788114 L0.109509052,16.2073385 C0.219018105,16.6453747 0.328527132,16.9739018 0.438036184,17.1929199 C0.876072369,18.0689922 1.53312663,18.7260465 2.29968992,19.0545736 C3.28527132,19.7116279 4.59937984,19.7116279 7.00857882,19.7116279 L12.7030491,19.7116279 C15.1122481,19.7116279 16.4263566,19.7116279 17.3024289,19.2735917 C18.1785013,18.8355555 18.8355555,18.1785013 19.1640827,17.411938 C19.3831008,16.9739018 19.4926098,16.4263566 19.6021189,15.6597933 L19.6021189,15.3312661 C19.6021189,15.2217571 19.4926098,15.2217571 19.4926098,15.1122481 C19.3831008,15.002739 19.3831008,15.002739 19.1640827,14.89323 L13.9076486,11.4984496 C13.4696124,10.9509044 13.3601034,10.9509044 13.2505943,10.9509044 L13.0315762,10.9509044 C13.0315762,10.9509044 12.9220672,10.9509044 12.2650129,11.3889406 L9.52728682,13.3601034 L9.41777777,13.4696124 C9.08925064,13.6886305 8.65121445,14.0171576 8.21317829,14.1266667 C7.88465116,14.2361757 7.55612403,14.2361757 7.11808785,14.2361757 C6.68005166,14.1266667 6.2420155,14.0171576 5.80397932,13.7981395 L5.69447029,13.7981395 L5.14692506,13.4696124 C4.70888887,13.1410853 4.59937984,13.1410853 4.59937984,13.1410853 L4.38036177,13.1410853 C4.38036177,13.1410853 4.27085271,13.1410853 3.7233075,13.4696124 L0.547545211,15.4407752 Z" id="路径" fill="#1A1A1A" fill-rule="nonzero"></path>
            <path d="M4.38036177,6.57054264 C4.38036177,7.78014613 5.36093914,8.76072351 6.57054264,8.76072351 C7.78014613,8.76072351 8.76072351,7.78014613 8.76072351,6.57054264 C8.76072351,5.78806636 8.34327741,5.06502847 7.66563308,4.67379032 C6.98798876,4.28255218 6.15309651,4.28255218 5.47545219,4.67379032 C4.79780786,5.06502847 4.38036177,5.78806636 4.38036177,6.57054264 L4.38036177,6.57054264 Z" id="路径" fill="#FFFFFF" fill-rule="nonzero"></path>
        </g>
    </g>
</svg>