<?xml version="1.0" encoding="UTF-8"?>
<svg width="36px" height="36px" viewBox="0 0 36 36" version="1.1" xmlns="http://www.w3.org/2000/svg" xmlns:xlink="http://www.w3.org/1999/xlink">
    <title>App/Icon buttons 图标/附件</title>
    <g id="App/Icon-buttons-图标/附件" stroke="none" fill="none" fill-rule="evenodd">
        <path d="M18,36 C27.9411255,36 36,27.9411255 36,18 C36,8.0588745 27.9411255,0 18,0 C8.0588745,0 0,8.0588745 0,18 C0,27.9411255 8.0588745,36 18,36 Z" id="Fill-1备份-2" fill="#F8F8F8"></path>
        <g id="编组" stroke-width="1" transform="translate(8.1447, 8.1442)" fill="#000000">
            <path d="M13.9393911,6.84347176 L12.0458006,4.97524475 L6.57914526,10.3496865 C5.46837371,11.375298 5.01355994,12.9140564 5.39227499,14.3651909 C5.77099003,15.8163254 6.92317863,16.9497202 8.39899662,17.3228688 C9.8748146,17.6960175 11.4402321,17.2497473 12.4840697,16.1582938 L16.6827554,12.0337221 C18.6090239,10.3235954 19.4193904,7.70870669 18.7902853,5.23314903 C18.1611803,2.75759138 16.1950945,0.824670185 13.6770617,0.206177127 C11.159029,-0.412315932 8.49927461,0.384380933 6.75980584,2.27815646 L2.88898565,6.08368225 C-0.663978152,9.57063001 -0.978241446,15.1276976 2.1596522,18.9803691 L3.0127716,20 L5.10375053,18.355434 L4.25063113,17.335803 C1.96493513,14.5312333 2.19271233,10.4848134 4.7792306,7.945331 L8.65339635,4.1398052 C9.72040141,2.93307671 11.3830788,2.4124547 12.963404,2.79024406 C14.5437292,3.16803341 15.7776102,4.3811008 16.1618815,5.93476851 C16.5461529,7.48843622 16.0165982,9.12306697 14.7891649,10.1720734 L10.5938248,14.296645 C10.2227239,14.7045073 9.65264272,14.8771909 9.1124115,14.7453809 C8.57218029,14.6135709 8.15037215,14.198878 8.01630055,13.6677596 C7.88222895,13.1366412 8.05787549,12.5761763 8.47273577,12.2113353 L13.9393911,6.84347176 Z" id="路径"></path>
        </g>
    </g>
</svg>