<?xml version="1.0" encoding="UTF-8"?>
<svg width="28px" height="24px" viewBox="0 0 28 24" version="1.1" xmlns="http://www.w3.org/2000/svg" xmlns:xlink="http://www.w3.org/1999/xlink">
    <title>LOGO/LOGO</title>
    <defs>
        <path d="M28,24 L0,24 L0,0 L28,0 Z" id="path-1"></path>
        <linearGradient x1="50.3063229%" y1="23.9884904%" x2="45.5704335%" y2="90.5387029%" id="linearGradient-2">
            <stop stop-color="#7200FF" offset="0%"></stop>
            <stop stop-color="#7200FF" stop-opacity="0" offset="100%"></stop>
        </linearGradient>
        <linearGradient x1="70.250312%" y1="54.7886814%" x2="18.3070903%" y2="30.2401951%" id="linearGradient-3">
            <stop stop-color="#008BFF" offset="0%"></stop>
            <stop stop-color="#008BFF" stop-opacity="0" offset="100%"></stop>
        </linearGradient>
        <linearGradient x1="36.4069215%" y1="54.4774575%" x2="97.3096919%" y2="28.0166133%" id="linearGradient-4">
            <stop stop-color="#00EE8C" offset="0%"></stop>
            <stop stop-color="#00EE8C" stop-opacity="0" offset="100%"></stop>
        </linearGradient>
    </defs>
    <g id="LOGO/LOGO" stroke="none" fill="none" xlink:href="#path-1">
        <rect id="矩形" opacity="0.200000003" x="0" y="0" width="28" height="24"></rect>
        <path d="M16.9595578,0.000837091213 L10.6794097,0.348995827 C10.4118098,0.366675762 10.2600932,0.679474627 10.4207343,0.894353847 C14.1227818,5.98345537 16.816901,12.9221502 14.0960083,17.4210138 C13.9801249,17.6182131 14.2120269,17.8684522 14.3993063,17.7433327 C20.9827524,13.3070288 19.314681,4.65882018 17.2807049,0.19667638 C17.2271578,0.0633968641 17.1023499,-0.00868287422 16.9595578,0.000837091213 Z" id="路径" fill="url(#linearGradient-2)" fill-rule="nonzero"></path>
        <path d="M24.8098782,22.7861944 L26.9775867,16.8838158 C27.0757563,16.6254167 26.8349298,16.3656577 26.5762544,16.4282174 C20.3584426,17.8942921 13.0702309,17.367974 10.0104774,13.2091091 C9.87674504,13.0295898 9.55559803,13.1465494 9.60008534,13.3695886 C11.1790469,21.517319 19.6091897,23.1180332 24.5155047,23.0105935 C24.6404478,23.0105935 24.7563312,22.9208339 24.8098782,22.7861944 Z" id="路径" fill="url(#linearGradient-3)" fill-rule="nonzero"></path>
        <path d="M1.08989237,19.1917274 L5.27372803,23.8864304 C5.45208293,24.0917896 5.79107896,24.0033899 5.86247501,23.7436309 C7.49498358,17.5284534 11.4022948,11.3037561 16.5226627,10.5802387 C16.7457753,10.5530388 16.7902627,10.22256 16.5851342,10.1504802 C8.98470006,7.70928911 3.25760089,14.4344647 1.03634534,18.8245287 C0.974009011,18.9496483 0.991858024,19.0938078 1.08989237,19.1917274 Z" id="路径" fill="url(#linearGradient-4)" fill-rule="nonzero"></path>
    </g>
</svg>