<?xml version="1.0" encoding="UTF-8"?>
<svg width="71px" height="24px" viewBox="0 0 71 24" version="1.1" xmlns="http://www.w3.org/2000/svg" xmlns:xlink="http://www.w3.org/1999/xlink">
    <title>LOGO/LOGO+文字</title>
    <defs>
        <path d="M16.2923111,0.19667638 C18.1727503,4.31905158 19.740664,12.0142691 14.7736684,16.6603751 C18.0578639,17.4567206 22.004465,17.2740924 25.5944872,16.4282174 C25.8533471,16.3656577 26.0943452,16.6254167 25.9961057,16.8838158 L23.8268518,22.7861944 C23.7732666,22.9208339 23.6573006,23.0105935 23.5322685,23.0105935 C18.9547696,23.1107613 11.3121272,21.726178 9.01805924,14.935515 C7.13374325,17.3808596 5.70184766,20.5634915 4.86594138,23.7436309 C4.79449443,24.0033899 4.45525674,24.0917896 4.27677469,23.8864304 L0.0899564573,19.1917274 C-0.00814778022,19.0938078 -0.0260095173,18.9496483 0.0363712462,18.8245287 C2.0772003,14.7939309 7.07535566,8.79497165 13.7665063,9.72887006 C13.0072247,6.68646186 11.3536767,3.54039749 9.42745013,0.894353847 C9.2666945,0.679474627 9.41851927,0.366675762 9.68631001,0.348995827 L15.9709351,0.000837091213 C16.113829,-0.00868287422 16.2387258,0.0633968641 16.2923111,0.19667638 Z M47.130752,19.0638879 L47.1011178,19.1550075 C46.9288603,19.6935656 46.5905698,20.1641239 46.1350955,20.4973227 C45.6796212,20.8305215 45.1305081,21.0086808 44.5671868,21.0086808 L37.8745834,21.0086808 L37.8745834,19.025808 L44.5671868,19.025808 C44.7003379,19.025808 44.8306474,18.9877281 44.9422833,18.9142884 C45.0539191,18.8422087 45.1421453,18.7374891 45.1962718,18.6164495 L46.4124937,13.3260687 L48.3981235,13.3260687 Z M32.3269038,2.70923233 L34.6479038,2.70923233 L34.6486454,1.38395207 L36.6206083,1.38395207 L36.6199038,2.70923233 L37.3844681,2.70994726 L37.3844681,4.69146006 L36.6199038,4.69123233 L36.6206083,7.27273069 C36.6125848,10.3037597 35.9943293,13.2986476 34.8053268,16.080516 L34.5790803,16.5902648 L34.5816639,16.6022968 C35.0797628,17.5814933 35.6574276,18.5158099 36.3089751,19.3984467 L37.4744534,20.9842009 L35.0194118,20.9842009 L34.7196864,20.5762024 C34.2751146,19.9711096 33.86179,19.3442645 33.481476,18.6956658 C33.1030555,19.3429063 32.6917607,19.9711103 32.2492187,20.5762024 L31.9494934,20.9842009 L29.4944517,20.9842009 L30.6657487,19.3984467 C31.3147251,18.5144499 31.8904955,17.5774133 32.3872413,16.5982168 C32.682544,17.2441658 33.007849,17.8747076 33.3635807,18.4889844 C33.0087154,17.873992 32.683652,17.2427025 32.3884591,16.5982168 L32.1650191,16.0805027 C30.9779264,13.298497 30.3615738,10.3024797 30.3553333,7.27273069 L30.3549038,4.69123233 L29.4889038,4.69146006 L29.4889038,2.70994726 L30.3549038,2.70923233 L30.3553333,1.38395207 L32.3271609,1.38395207 Z M52.9018522,20.8400414 L50.9298894,20.8400414 L50.9298894,13.3831885 L52.9018522,13.3831885 Z M69.7407342,20.8400414 L67.7689067,20.8400414 L67.7689067,13.4267083 L69.7407341,13.4267083 Z M56.5349566,18.1608511 C56.5273789,18.3376505 56.5897596,18.5103699 56.7084319,18.6409294 C56.8271042,18.7701289 56.9923253,18.8490086 57.1678304,18.8571686 L66.5028884,18.8571686 L66.5028884,20.8359614 L57.1678304,20.8359614 C56.4694636,20.8278015 55.8031666,20.5408425 55.3148105,20.0390043 C54.8265897,19.5371662 54.5560926,18.8612486 54.5629938,18.1594912 L54.5629938,13.4267083 L56.5349566,13.4267083 Z M63.0145723,17.7106928 L61.0427448,17.7106928 L61.0427448,13.4267083 L63.0145723,13.4267083 Z M9.7455,14.0543937 C10.7756167,15.084039 12.113509,15.8327893 13.6390894,16.3378563 C14.258452,14.7714181 14.3465638,12.9863144 14.0539388,11.1257817 L14.0252407,10.9600063 C12.4480317,11.5348416 11.0094136,12.628739 9.7455,14.0543937 Z M43.9363427,15.5945405 L41.9645152,15.5945405 L41.9645152,1.31323233 L43.9363427,1.31323233 Z M32.3269038,4.69123233 L32.3271609,7.27273069 C32.3295341,9.39934451 32.6625849,11.5108938 33.3134352,13.5314317 L33.4819758,14.0326332 C34.247945,11.8613156 34.6424228,9.57585768 34.6486454,7.27273069 L34.6479038,4.69123233 Z M39.4092043,13.8687067 L37.4234392,13.8687067 L37.4628162,13.531428 L39.450611,13.531428 Z M40.8250176,2.29106878 L39.4526408,13.530068 L37.4649813,13.530068 L38.8393878,2.28698879 Z M52.9156545,12.3509523 L50.9298894,12.3509523 L51.7503114,5.63257664 L53.7359412,5.63257664 Z M47.1505082,2.30602872 L48.3789086,12.3509523 L46.3912491,12.3509523 L45.1647431,2.29922875 Z M60.1742855,12.3509523 L58.1886557,12.3509523 L57.368369,5.63257664 L59.3560285,5.63257664 Z M56.5339038,2.70923233 L59.9479015,2.70994726 L59.9479015,4.69146006 L56.5339038,4.69123233 L56.5348213,12.3291923 L56.5348213,12.3495923 L54.5628584,12.3495923 L54.5628584,12.3291923 L54.5619038,4.69123233 L51.1551908,4.69146006 L51.1551908,2.70994726 L54.5619038,2.70923233 L54.5628584,1.37987208 L56.5348213,1.37987208 Z M69.547232,1.95107001 C69.8366734,2.24210895 69.9994587,2.63650752 70,3.04858603 L70,10.777438 C69.9994587,11.1895165 69.8366734,11.583915 69.547232,11.874954 C69.2577907,12.1646329 68.8653737,12.3291923 68.4560423,12.3291923 L62.3825104,12.3291923 C61.9729083,12.3291923 61.5799501,12.1659929 61.2901028,11.874954 C61.0002555,11.583915 60.8370642,11.1895165 60.8365229,10.777438 L60.8365229,3.04858603 C60.8370642,2.63650752 61.0002555,2.24210895 61.2901028,1.95107001 C61.5799501,1.66003107 61.9729083,1.49683166 62.3825104,1.49683166 L68.4560423,1.49683166 C68.8653737,1.49683166 69.2577907,1.66139106 69.547232,1.95107001 Z M62.8045616,3.47290449 L62.8084858,10.3476795 L68.0281725,10.3476795 L68.0279038,9.11123233 L64.0313382,9.11144401 L64.0313382,7.54880969 L68.0279038,7.54823233 L68.0279038,6.33123233 L64.0313382,6.33161411 L64.0313382,4.76761978 L68.0279038,4.76723233 L68.0281725,3.47290449 Z" id="path-1"></path>
        <linearGradient x1="50.3067598%" y1="23.9884904%" x2="45.5641158%" y2="90.5387029%" id="linearGradient-2">
            <stop stop-color="#7200FF" offset="0%"></stop>
            <stop stop-color="#7200FF" stop-opacity="0" offset="100%"></stop>
        </linearGradient>
        <linearGradient x1="70.250312%" y1="54.7818612%" x2="18.3070903%" y2="30.2683378%" id="linearGradient-3">
            <stop stop-color="#008BFF" offset="0%"></stop>
            <stop stop-color="#008BFF" stop-opacity="0" offset="100%"></stop>
        </linearGradient>
        <linearGradient x1="36.4069215%" y1="54.4710806%" x2="97.3096919%" y2="28.0479229%" id="linearGradient-4">
            <stop stop-color="#00EE8C" offset="0%"></stop>
            <stop stop-color="#00EE8C" stop-opacity="0" offset="100%"></stop>
        </linearGradient>
    </defs>
    <g id="LOGO/LOGO+文字" stroke="none" fill="none" transform="translate(0.2073, 0)" xlink:href="#path-1" fill-rule="evenodd" stroke-width="1">
        <g id="编组-13" fill-rule="nonzero">
            <g id="编组-3">
                <path d="M53.7359412,5.63257664 L52.9156545,12.3509523 L50.9298894,12.3509523 L51.7503114,5.63257664 L53.7359412,5.63257664 Z M57.368369,5.63257664 L59.3560285,5.63257664 L60.1742855,12.3509523 L58.1886557,12.3509523 L57.368369,5.63257664 Z M56.5348213,1.37987208 L56.5339038,2.70923233 L59.9479015,2.70994726 L59.9479015,4.69146006 L56.5339038,4.69123233 L56.5348213,12.3291923 L56.5348213,12.3495923 L54.5628584,12.3495923 L54.5628584,12.3291923 L54.5619038,4.69123233 L51.1551908,4.69146006 L51.1551908,2.70994726 L54.5619038,2.70923233 L54.5628584,1.37987208 L56.5348213,1.37987208 Z M68.4560423,1.49683166 C68.8653737,1.49683166 69.2577907,1.66139106 69.547232,1.95107001 C69.8366734,2.24210895 69.9994587,2.63650752 70,3.04858603 L70,10.777438 C69.9994587,11.1895165 69.8366734,11.583915 69.547232,11.874954 C69.2577907,12.1646329 68.8653737,12.3291923 68.4560423,12.3291923 L62.3825104,12.3291923 C61.9729083,12.3291923 61.5799501,12.1659929 61.2901028,11.874954 C61.0002555,11.583915 60.8370642,11.1895165 60.8365229,10.777438 L60.8365229,3.04858603 C60.8370642,2.63650752 61.0002555,2.24210895 61.2901028,1.95107001 C61.5799501,1.66003107 61.9729083,1.49683166 62.3825104,1.49683166 L68.4560423,1.49683166 Z M62.8045616,3.47290449 L62.8084858,10.3476795 L68.0281725,10.3476795 L68.0279038,9.11123233 L64.0313382,9.11144401 L64.0313382,7.54880969 L68.0279038,7.54823233 L68.0279038,6.33123233 L64.0313382,6.33161411 L64.0313382,4.76761978 L68.0279038,4.76723233 L68.0281725,3.47290449 L62.8045616,3.47290449 Z M52.9018522,13.3831885 L50.9298894,13.3831885 L50.9298894,20.8400414 L52.9018522,20.8400414 L52.9018522,13.3831885 Z M56.5349566,13.4267083 L56.5349566,18.1608511 C56.5273789,18.3376505 56.5897596,18.5103699 56.7084319,18.6409294 C56.8271042,18.7701289 56.9923253,18.8490086 57.1678304,18.8571686 L66.5028884,18.8571686 L66.5028884,20.8359614 L57.1678304,20.8359614 C56.4694636,20.8278015 55.8031666,20.5408425 55.3148105,20.0390043 C54.8265897,19.5371662 54.5560926,18.8612486 54.5629938,18.1594912 L54.5629938,13.4267083 L56.5349566,13.4267083 Z M61.0427448,13.4267083 L63.0145723,13.4267083 L63.0145723,17.7106928 L61.0427448,17.7106928 L61.0427448,13.4267083 Z M69.7407342,13.4267083 L67.7689067,13.4267083 L67.7689067,20.8400414 L69.7407342,20.8400414 L69.7407342,13.4267083 Z M48.3981235,13.3260687 L47.130752,19.0638879 L47.1011178,19.1550075 C46.9288603,19.6935656 46.5905698,20.1641239 46.1350955,20.4973227 C45.6796212,20.8305215 45.1305081,21.0086808 44.5671868,21.0086808 L37.8745834,21.0086808 L37.8745834,19.025808 L44.5671868,19.025808 C44.7003379,19.025808 44.8306474,18.9877281 44.9422833,18.9142884 C45.0539191,18.8422087 45.1421453,18.7374891 45.1962718,18.6164495 L46.4124937,13.3260687 L48.3981235,13.3260687 Z M32.3872413,16.5982168 C32.7155183,17.3162942 33.080872,18.0153317 33.4816786,18.6953292 C33.1031992,19.3426869 32.691838,19.9710046 32.2492187,20.5762024 L31.9494934,20.9842009 L29.4944517,20.9842009 L30.6657487,19.3984467 C31.3147251,18.5144499 31.8904955,17.5774133 32.3872413,16.5982168 Z M32.3271609,1.38395207 L32.3269038,2.70923233 L34.6479038,2.70923233 L34.6486454,1.38395207 L36.6206083,1.38395207 L36.6199038,2.70923233 L37.3844681,2.70994726 L37.3844681,4.69146006 L36.6199038,4.69123233 L36.6206083,7.27273069 C36.6125848,10.3037597 35.9943293,13.2986476 34.8053268,16.080516 L34.5790803,16.5902648 L34.5816639,16.6022968 C35.0797628,17.5814933 35.6574276,18.5158099 36.3089751,19.3984467 L37.4744534,20.9842009 L35.0194118,20.9842009 L34.7196864,20.5762024 C34.2750374,19.9710046 33.8616465,19.3440469 33.4812726,18.6953292 C33.0815993,18.0146504 32.7165765,17.3145856 32.3884591,16.5982168 L32.1650191,16.0805027 C30.9779264,13.298497 30.3615738,10.3024797 30.3553333,7.27273069 L30.3549038,4.69123233 L29.4889038,4.69146006 L29.4889038,2.70994726 L30.3549038,2.70923233 L30.3553333,1.38395207 L32.3271609,1.38395207 Z M43.9363427,1.31323233 L43.9363427,15.5945405 L41.9645152,15.5945405 L41.9645152,1.31323233 L43.9363427,1.31323233 Z M32.3269038,4.69123233 L32.3271609,7.27273069 C32.3295341,9.39934451 32.6625849,11.5108938 33.3134352,13.5314317 L33.4819758,14.0326332 C34.247945,11.8613156 34.6424228,9.57585768 34.6486454,7.27273069 L34.6479038,4.69123233 L32.3269038,4.69123233 Z M39.450611,13.531428 L39.4092043,13.8687067 L37.4234392,13.8687067 L37.4628162,13.531428 L39.450611,13.531428 Z M38.8393878,2.28698879 L40.8250176,2.29106878 L39.4526408,13.530068 L37.4649813,13.530068 L38.8393878,2.28698879 Z M45.1647431,2.29922875 L47.1505082,2.30602872 L48.3789086,12.3509523 L46.3912491,12.3509523 L45.1647431,2.29922875 Z" id="形状结合" fill="#FFFFFF"></path>
                <g id="编组-24">
                    <path d="M15.9709351,0.000837091213 L9.68631001,0.348995827 C9.41851927,0.366675762 9.2666945,0.679474627 9.42745013,0.894353847 C13.1321368,5.98345537 15.8281765,12.9221502 13.1053442,17.4210138 C12.9893782,17.6182131 13.2214455,17.8684522 13.4088584,17.7433327 C19.9969977,13.3070288 18.3277372,4.65882018 16.2923111,0.19667638 C16.2387258,0.0633968641 16.113829,-0.00868287422 15.9709351,0.000837091213 Z" id="路径" fill="url(#linearGradient-2)"></path>
                    <path d="M23.8268518,22.7861944 L25.9961057,16.8838158 C26.0943452,16.6254167 25.8533471,16.3656577 25.5944872,16.4282174 C19.3722429,17.8942921 12.0788356,17.367974 9.01690081,13.2091091 C8.8830731,13.0295898 8.56169715,13.1465494 8.60621618,13.3695886 C10.1863033,21.517319 18.6224558,23.1180332 23.5322685,23.0105935 C23.6573006,23.0105935 23.7732666,22.9208339 23.8268518,22.7861944 Z" id="路径" fill="url(#linearGradient-3)"></path>
                    <path d="M0.0899564573,19.1917274 L4.27677469,23.8864304 C4.45525674,24.0917896 4.79449443,24.0033899 4.86594138,23.7436309 C6.49961374,17.5284534 10.4097104,11.3037561 15.5337285,10.5802387 C15.7570002,10.5530388 15.8015192,10.22256 15.5962446,10.1504802 C7.9903922,7.70928911 2.2592103,14.4344647 0.0363712462,18.8245287 C-0.0260095173,18.9496483 -0.00814778022,19.0938078 0.0899564573,19.1917274 Z" id="路径" fill="url(#linearGradient-4)"></path>
                </g>
            </g>
        </g>
    </g>
</svg>