<?xml version="1.0" encoding="UTF-8"?>
<svg width="16px" height="16px" viewBox="0 0 16 16" version="1.1" xmlns="http://www.w3.org/2000/svg" xmlns:xlink="http://www.w3.org/1999/xlink">
    <title>Icon / Filled / Operations / 踩/ 16</title>
    <defs>
        <path d="M12.164795,1.23461 C13.125545,1.30676 12.988595,1.663385 14.722595,7.83761 C14.843345,8.33021 14.715395,8.74481 14.434145,9.056285 C13.931045,9.613085 13.51982,9.47756 10.30907,9.47756 L11.11742,12.518135 C11.54357,14.46086 9.10157,15.626135 7.92122,14.02526 C7.92122,14.02526 5.74862,10.07366 4.08902,9.290285 C3.895595,9.19901 3.77327,9.00371 3.77327,8.789885 L3.77327,1.787435 C3.77327,1.48076 4.02197,1.23220998 4.328645,1.23220998 Z" id="path-1"></path>
    </defs>
    <g id="Icon-/-Filled-/-Operations-/-踩/-16" stroke="none" fill="none" xlink:href="#path-1" stroke-linecap="round" stroke-linejoin="round" stroke-width="1">
        <path d="M11.11742,3.49199191 L10.30907,6.53256691 C13.51982,6.53256691 13.931045,6.39704191 14.434145,6.95384191 C14.715395,7.26531691 14.843345,7.67991691 14.722595,8.17251691 C12.988595,14.3467419 13.125545,14.7033669 12.164795,14.7755169 L4.328645,14.7779169 C4.02197,14.7779169 3.77327,14.5293669 3.77327,14.2226919 L3.77327,7.22024191 C3.77327,7.00641691 3.895595,6.81111691 4.08902,6.71984191 C5.74862,5.93646691 7.92122,1.98486691 7.92122,1.98486691 C9.10157,0.383991912 11.54357,1.54926691 11.11742,3.49199191 Z" id="Stroke-2" stroke="#1A1A1A" fill="#1A1A1A" fill-rule="evenodd" transform="translate(9.2707, 8.0051) scale(1, -1) translate(-9.2707, -8.0051)"></path>
        <line x1="1.4875" y1="1.1" x2="1.4875" y2="9.125" id="Stroke-4" stroke="#1A1A1A" transform="translate(1.4875, 5.1125) scale(1, -1) translate(-1.4875, -5.1125)"></line>
    </g>
</svg>