<?xml version="1.0" encoding="UTF-8"?>
<svg width="16px" height="16px" viewBox="0 0 16 16" version="1.1" xmlns="http://www.w3.org/2000/svg" xmlns:xlink="http://www.w3.org/1999/xlink">
    <title>Icon / Outlined / Operations / 编辑/ 16</title>
    <defs>
        <path d="M10.94252,2.492 L13.48812,5.0376 C13.6963867,5.24586667 13.6963867,5.58353333 13.48812,5.79186667 L5.69385333,13.5860667 C5.64378667,13.6361333 5.57585333,13.6642001 5.50505333,13.6642001 L2.57972,13.6617333 C2.43245333,13.6616 2.31312,13.5421333 2.31325322,13.3948667 L2.31572,10.4748 C2.31578667,10.4041333 2.34385333,10.3364 2.39385333,10.2864667 L10.1882533,2.492 C10.39652,2.28373333 10.7342533,2.28373333 10.94252,2.492 Z" id="path-1"></path>
    </defs>
    <g id="Icon-/-Outlined-/-Operations-/-编辑/-16" stroke="none" fill="none" xlink:href="#path-1" stroke-linecap="round" stroke-linejoin="round" stroke-width="1">
        <path d="M5.50505333,13.6642001 L2.57972,13.6617333 C2.43245333,13.6616 2.31312,13.5421333 2.31325322,13.3948667 L2.31572,10.4748 C2.31578667,10.4041333 2.34385333,10.3364 2.39385333,10.2864667 L10.1882533,2.492 C10.39652,2.28373333 10.7342533,2.28373333 10.94252,2.492 L13.48812,5.0376 C13.6963867,5.24586667 13.6963867,5.58353333 13.48812,5.79186667 L5.69385333,13.5860667 C5.64378667,13.6361333 5.57585333,13.6642001 5.50505333,13.6642001 Z" id="Stroke-2" stroke="#1A1A1A"></path>
        <line x1="8.82006" y1="13.67588" x2="13.6867267" y2="13.67588" id="Stroke-4" stroke="#1A1A1A"></line>
    </g>
</svg>