<?xml version="1.0" encoding="UTF-8"?>
<svg width="16px" height="16px" viewBox="0 0 16 16" version="1.1" xmlns="http://www.w3.org/2000/svg" xmlns:xlink="http://www.w3.org/1999/xlink">
    <title>Icon / Outlined / Operations / 双箭头 朝上 / 16</title>
    <defs>
        <path d="M16,16 L0,16 L0,0 L16,0 Z" id="path-1"></path>
    </defs>
    <g id="Icon-/-Outlined-/-Operations-/-双箭头-朝上-/-16" stroke="none" fill="none" xlink:href="#path-1">
        <polygon id="矩形" points="0 16 16 16 16 0 0 0"></polygon>
        <path d="M7.41454609,4.18932077 C7.76406136,3.93689308 8.23601192,3.93689308 8.58552719,4.18932077 L12.7927819,7.22789363 C13.0166448,7.38957238 13.067055,7.70211563 12.9053763,7.92597852 C12.7436975,8.14984141 12.4311543,8.20025161 12.2072914,8.03857286 L8.00003664,5 L3.79278192,8.03857286 C3.56891903,8.20025161 3.25637578,8.14984141 3.09469703,7.92597852 C2.93301827,7.70211563 2.98342848,7.38957238 3.20729136,7.22789363 L7.41454609,4.18932077 Z" id="路径" fill="#1A1A1A" fill-rule="nonzero"></path>
        <path d="M7.41454609,8.18932077 C7.76406136,7.93689308 8.23601192,7.93689308 8.58552719,8.18932077 L12.7927819,11.2278936 C13.0166448,11.3895724 13.067055,11.7021156 12.9053763,11.9259785 C12.7436975,12.1498414 12.4311543,12.2002516 12.2072914,12.0385729 L8.00003664,9 L3.79278192,12.0385729 C3.56891903,12.2002516 3.25637578,12.1498414 3.09469703,11.9259785 C2.93301827,11.7021156 2.98342848,11.3895724 3.20729136,11.2278936 L7.41454609,8.18932077 Z" id="路径" fill="#1A1A1A" fill-rule="nonzero"></path>
    </g>
</svg>