<?xml version="1.0" encoding="UTF-8"?>
<svg width="20px" height="20px" viewBox="0 0 20 20" version="1.1" xmlns="http://www.w3.org/2000/svg" xmlns:xlink="http://www.w3.org/1999/xlink">
    <title>Icon / Outlined / Operations / 双箭头 朝上 / 20</title>
    <defs>
        <path d="M20,20 L0,20 L0,0 L20,0 Z" id="path-1"></path>
    </defs>
    <g id="Icon-/-Outlined-/-Operations-/-双箭头-朝上-/-20" stroke="none" fill="none" xlink:href="#path-1">
        <polygon id="矩形" points="0 20 20 20 20 0 0 0"></polygon>
        <path d="M9.26818261,5.23665096 C9.7050767,4.92111635 10.2950149,4.92111635 10.731909,5.23665096 L15.9909774,9.03486703 C16.270806,9.23696547 16.3338188,9.62764454 16.1317203,9.90747315 C15.9296219,10.1873018 15.5389428,10.2503145 15.2591142,10.0482161 L10.0000458,6.25 L4.7409774,10.0482161 C4.46114879,10.2503145 4.07046972,10.1873018 3.86837128,9.90747315 C3.66627284,9.62764454 3.72928559,9.23696547 4.0091142,9.03486703 L9.26818261,5.23665096 Z" id="路径" fill="#1A1A1A" fill-rule="nonzero"></path>
        <path d="M9.26818261,10.236651 C9.7050767,9.92111635 10.2950149,9.92111635 10.731909,10.236651 L15.9909774,14.034867 C16.270806,14.2369655 16.3338188,14.6276445 16.1317203,14.9074731 C15.9296219,15.1873018 15.5389428,15.2503145 15.2591142,15.0482161 L10.0000458,11.25 L4.7409774,15.0482161 C4.46114879,15.2503145 4.07046972,15.1873018 3.86837128,14.9074731 C3.66627284,14.6276445 3.72928559,14.2369655 4.0091142,14.034867 L9.26818261,10.236651 Z" id="路径" fill="#1A1A1A" fill-rule="nonzero"></path>
    </g>
</svg>