<?xml version="1.0" encoding="UTF-8"?>
<svg width="24px" height="24px" viewBox="0 0 24 24" version="1.1" xmlns="http://www.w3.org/2000/svg" xmlns:xlink="http://www.w3.org/1999/xlink">
    <title>Icon / Outlined / Operations / 双箭头 朝上 / 24</title>
    <defs>
        <path d="M24,24 L0,24 L0,0 L24,0 Z" id="path-1"></path>
    </defs>
    <g id="Icon-/-Outlined-/-Operations-/-双箭头-朝上-/-24" stroke="none" fill="none" xlink:href="#path-1">
        <polygon id="矩形" points="0 24 24 24 24 0 0 0"></polygon>
        <path d="M11.1218191,6.28398116 C11.646092,5.90533961 12.3540179,5.90533961 12.8782908,6.28398116 L19.1891729,10.8418404 C19.5249672,11.0843586 19.6005825,11.5531734 19.3580644,11.8889678 C19.1155463,12.2247621 18.6467314,12.3003774 18.310937,12.0578593 L12.000055,7.5 L5.68917288,12.0578593 C5.35337854,12.3003774 4.88456367,12.2247621 4.64204554,11.8889678 C4.39952741,11.5531734 4.47514271,11.0843586 4.81093704,10.8418404 L11.1218191,6.28398116 Z" id="路径" fill="#1A1A1A" fill-rule="nonzero"></path>
        <path d="M11.1218191,12.2839812 C11.646092,11.9053396 12.3540179,11.9053396 12.8782908,12.2839812 L19.1891729,16.8418404 C19.5249672,17.0843586 19.6005825,17.5531734 19.3580644,17.8889678 C19.1155463,18.2247621 18.6467314,18.3003774 18.310937,18.0578593 L12.000055,13.5 L5.68917288,18.0578593 C5.35337854,18.3003774 4.88456367,18.2247621 4.64204554,17.8889678 C4.39952741,17.5531734 4.47514271,17.0843586 4.81093704,16.8418404 L11.1218191,12.2839812 Z" id="路径" fill="#1A1A1A" fill-rule="nonzero"></path>
    </g>
</svg>