<?xml version="1.0" encoding="UTF-8"?>
<svg width="20px" height="20px" viewBox="0 0 20 20" version="1.1" xmlns="http://www.w3.org/2000/svg" xmlns:xlink="http://www.w3.org/1999/xlink">
    <title>Icon / Outlined / Status / loading2 / 20</title>
    <defs>
        <path d="M18.125,10 C18.125,14.4873136 14.4873136,18.125 10,18.125 C5.51268641,18.125 1.875,14.4873136 1.875,10 C1.875,5.51268641 5.51268641,1.875 10,1.875 C14.4873136,1.875 18.125,5.51268641 18.125,10 Z" id="path-1"></path>
    </defs>
    <g id="Icon-/-Outlined-/-Status-/-loading2-/-20" stroke="none" fill="none" xlink:href="#path-1" stroke-linecap="square" stroke-width="1.25">
        <circle id="椭圆形" stroke="#E5E5E5" transform="translate(10, 10) scale(1, -1) translate(-10, -10)" cx="10" cy="10" r="8.125"></circle>
        <path d="M10,18.125 C14.4873136,18.125 18.125,14.4873136 18.125,10 C18.125,5.51268641 14.4873136,1.875 10,1.875 C5.51268641,1.875 1.875,5.51268641 1.875,10 C1.875,14.4873136 5.51268641,18.125 10,18.125 Z" id="椭圆形" stroke="#1A1A1A" stroke-dasharray="13.75,38.75" transform="translate(10, 10) scale(1, -1) translate(-10, -10)"></path>
    </g>
</svg>