<?xml version="1.0" encoding="UTF-8"?>
<svg width="16px" height="16px" viewBox="0 0 16 16" version="1.1" xmlns="http://www.w3.org/2000/svg" xmlns:xlink="http://www.w3.org/1999/xlink">
    <title>Icon / Outlined / Operations / 复制/ 16</title>
    <defs>
        <path d="M14.75,2.45 L14.75,9.5 C14.75,10.162775 14.212775,10.7 13.55,10.7 L12.8,10.7 L10.7,8.599 L10.7,13.55 C10.7,14.212775 10.162775,14.75 9.5,14.75 L2.45,14.75 C1.787225,14.75 1.25,14.212775 1.25,13.55 L1.25,6.5 C1.25,5.837225 1.787225,5.3 2.45,5.3 L7.4,5.299 L5.3,3.2 L5.3,2.45 C5.3,1.787225 5.837225,1.25 6.5,1.25 L13.55,1.25 C14.212775,1.25 14.75,1.787225 14.75,2.45 Z" id="path-1"></path>
    </defs>
    <g id="Icon-/-Outlined-/-Operations-/-复制/-16" stroke="none" fill="none" xlink:href="#path-1" stroke-linejoin="round" stroke-width="1">
        <path d="M9.5,14.75 L2.45,14.75 C1.787225,14.75 1.25,14.212775 1.25,13.55 L1.25,6.5 C1.25,5.837225 1.787225,5.3 2.45,5.3 L9.5,5.3 C10.162775,5.3 10.7,5.837225 10.7,6.5 L10.7,13.55 C10.7,14.212775 10.162775,14.75 9.5,14.75 Z" id="Stroke-2" stroke="#1A1A1A" stroke-linecap="round"></path>
        <path d="M5.3,3.2 L5.3,2.45 C5.3,1.787225 5.837225,1.25 6.5,1.25 L13.55,1.25 C14.212775,1.25 14.75,1.787225 14.75,2.45 L14.75,9.5 C14.75,10.162775 14.212775,10.7 13.55,10.7 L12.8,10.7" id="Stroke-4" stroke="#1A1A1A" stroke-linecap="square" stroke-dasharray="2.7,1.8"></path>
    </g>
</svg>