<?xml version="1.0" encoding="UTF-8"?>
<svg width="16px" height="16px" viewBox="0 0 16 16" version="1.1" xmlns="http://www.w3.org/2000/svg" xmlns:xlink="http://www.w3.org/1999/xlink">
    <title>Icon / Outlined / Operations / 双箭头 朝右 / 16</title>
    <defs>
        <path d="M16,16 L1.03455795e-08,16 L0,0 L16,0 Z" id="path-1"></path>
    </defs>
    <g id="Icon-/-Outlined-/-Operations-/-双箭头-朝右-/-16" stroke="none" fill="none" xlink:href="#path-1">
        <polygon id="矩形" points="-8.8817842e-16 4.8985872e-16 9.15390196e-17 16 16 16 16 -4.8985872e-16"></polygon>
        <path d="M11.8106792,7.41454609 C12.0631069,7.76406136 12.0631069,8.23601192 11.8106792,8.58552719 L8.77210637,12.7927819 C8.61042762,13.0166448 8.29788437,13.067055 8.07402148,12.9053763 C7.85015859,12.7436975 7.79974839,12.4311543 7.96142714,12.2072914 L11,8.00003664 L7.96142714,3.79278192 C7.79974839,3.56891903 7.85015859,3.25637578 8.07402148,3.09469703 C8.29788437,2.93301827 8.61042762,2.98342848 8.77210637,3.20729136 L11.8106792,7.41454609 Z" id="路径" fill="#1A1A1A" fill-rule="nonzero"></path>
        <path d="M7.81067923,7.41454609 C8.06310692,7.76406136 8.06310692,8.23601192 7.81067923,8.58552719 L4.77210637,12.7927819 C4.61042762,13.0166448 4.29788437,13.067055 4.07402148,12.9053763 C3.85015859,12.7436975 3.79974839,12.4311543 3.96142714,12.2072914 L7,8.00003664 L3.96142714,3.79278192 C3.79974839,3.56891903 3.85015859,3.25637578 4.07402148,3.09469703 C4.29788437,2.93301827 4.61042762,2.98342848 4.77210637,3.20729136 L7.81067923,7.41454609 Z" id="路径" fill="#1A1A1A" fill-rule="nonzero"></path>
    </g>
</svg>