<?xml version="1.0" encoding="UTF-8"?>
<svg width="20px" height="20px" viewBox="0 0 20 20" version="1.1" xmlns="http://www.w3.org/2000/svg" xmlns:xlink="http://www.w3.org/1999/xlink">
    <title>Icon / Outlined / Operations / 双箭头 朝右 / 20</title>
    <defs>
        <path d="M20,20 L0,20 L0,0 L20,0 Z" id="path-1"></path>
    </defs>
    <g id="Icon-/-Outlined-/-Operations-/-双箭头-朝右-/-20" stroke="none" fill="none" xlink:href="#path-1">
        <polygon id="矩形" points="0 6.123234e-16 1.2246468e-15 20 20 20 20 -6.123234e-16"></polygon>
        <path d="M14.763349,9.26818261 C15.0788837,9.7050767 15.0788837,10.2950149 14.763349,10.731909 L10.965133,15.9909774 C10.7630345,16.270806 10.3723555,16.3338188 10.0925269,16.1317203 C9.81269824,15.9296219 9.74968549,15.5389428 9.95178393,15.2591142 L13.75,10.0000458 L9.95178393,4.7409774 C9.74968549,4.46114879 9.81269824,4.07046972 10.0925269,3.86837128 C10.3723555,3.66627284 10.7630345,3.72928559 10.965133,4.0091142 L14.763349,9.26818261 Z" id="路径" fill="#1A1A1A" fill-rule="nonzero"></path>
        <path d="M9.76334904,9.26818261 C10.0788837,9.7050767 10.0788837,10.2950149 9.76334904,10.731909 L5.96513297,15.9909774 C5.76303453,16.270806 5.37235546,16.3338188 5.09252685,16.1317203 C4.81269824,15.9296219 4.74968549,15.5389428 4.95178393,15.2591142 L8.75,10.0000458 L4.95178393,4.7409774 C4.74968549,4.46114879 4.81269824,4.07046972 5.09252685,3.86837128 C5.37235546,3.66627284 5.76303453,3.72928559 5.96513297,4.0091142 L9.76334904,9.26818261 Z" id="路径" fill="#1A1A1A" fill-rule="nonzero"></path>
    </g>
</svg>