<?xml version="1.0" encoding="UTF-8"?>
<svg width="24px" height="24px" viewBox="0 0 24 24" version="1.1" xmlns="http://www.w3.org/2000/svg" xmlns:xlink="http://www.w3.org/1999/xlink">
    <title>Icon / Outlined / Operations / 双箭头 朝右 / 24</title>
    <defs>
        <path d="M24,24 L-1.77635684e-15,24 L-1.77635684e-15,-4.56523708e-13 L24,-4.56523708e-13 Z" id="path-1"></path>
    </defs>
    <g id="Icon-/-Outlined-/-Operations-/-双箭头-朝右-/-24" stroke="none" fill="none" xlink:href="#path-1">
        <polygon id="矩形" points="1.77635684e-15 -4.56951715e-13 -2.63237164e-15 24 24 24 24 -4.52542987e-13"></polygon>
        <path d="M17.7160188,11.1218191 C18.0946604,11.646092 18.0946604,12.3540179 17.7160188,12.8782908 L13.1581596,19.1891729 C12.9156414,19.5249672 12.4468266,19.6005825 12.1110322,19.3580644 C11.7752379,19.1155463 11.6996226,18.6467314 11.9421407,18.310937 L16.5,12.000055 L11.9421407,5.68917288 C11.6996226,5.35337854 11.7752379,4.88456367 12.1110322,4.64204554 C12.4468266,4.39952741 12.9156414,4.47514271 13.1581596,4.81093704 L17.7160188,11.1218191 Z" id="路径" fill="#1A1A1A" fill-rule="nonzero"></path>
        <path d="M11.7160188,11.1218191 C12.0946604,11.646092 12.0946604,12.3540179 11.7160188,12.8782908 L7.15815956,19.1891729 C6.91564143,19.5249672 6.44682655,19.6005825 6.11103222,19.3580644 C5.77523789,19.1155463 5.69962259,18.6467314 5.94214072,18.310937 L10.5,12.000055 L5.94214072,5.68917288 C5.69962259,5.35337854 5.77523789,4.88456367 6.11103222,4.64204554 C6.44682655,4.39952741 6.91564143,4.47514271 7.15815956,4.81093704 L11.7160188,11.1218191 Z" id="路径" fill="#1A1A1A" fill-rule="nonzero"></path>
    </g>
</svg>