<?xml version="1.0" encoding="UTF-8"?>
<svg width="16px" height="16px" viewBox="0 0 16 16" version="1.1" xmlns="http://www.w3.org/2000/svg" xmlns:xlink="http://www.w3.org/1999/xlink">
    <title>Icon / Outlined / Operations / 双箭头 朝下 / 16</title>
    <defs>
        <path d="M16,16 L1.03455795e-08,16 L0,0 L16,0 Z" id="path-1"></path>
    </defs>
    <g id="Icon-/-Outlined-/-Operations-/-双箭头-朝下-/-16" stroke="none" fill="none" xlink:href="#path-1">
        <polygon id="矩形" points="16 -8.8817842e-16 -3.55271368e-15 1.07125646e-15 -1.77635684e-15 16 16 16"></polygon>
        <path d="M8.58545391,11.8106792 C8.23593864,12.0631069 7.76398808,12.0631069 7.41447281,11.8106792 L3.20721808,8.77210637 C2.9833552,8.61042762 2.93294499,8.29788437 3.09462375,8.07402148 C3.2563025,7.85015859 3.56884575,7.79974839 3.79270864,7.96142714 L7.99996336,11 L12.2072181,7.96142714 C12.431081,7.79974839 12.7436242,7.85015859 12.905303,8.07402148 C13.0669817,8.29788437 13.0165715,8.61042762 12.7927086,8.77210637 L8.58545391,11.8106792 Z" id="路径" fill="#1A1A1A" fill-rule="nonzero"></path>
        <path d="M8.58545391,7.81067923 C8.23593864,8.06310692 7.76398808,8.06310692 7.41447281,7.81067923 L3.20721808,4.77210637 C2.9833552,4.61042762 2.93294499,4.29788437 3.09462375,4.07402148 C3.2563025,3.85015859 3.56884575,3.79974839 3.79270864,3.96142714 L7.99996336,7 L12.2072181,3.96142714 C12.431081,3.79974839 12.7436242,3.85015859 12.905303,4.07402148 C13.0669817,4.29788437 13.0165715,4.61042762 12.7927086,4.77210637 L8.58545391,7.81067923 Z" id="路径" fill="#1A1A1A" fill-rule="nonzero"></path>
    </g>
</svg>