<?xml version="1.0" encoding="UTF-8"?>
<svg width="20px" height="20px" viewBox="0 0 20 20" version="1.1" xmlns="http://www.w3.org/2000/svg" xmlns:xlink="http://www.w3.org/1999/xlink">
    <title>Icon / Outlined / Operations / 双箭头 朝下 / 20</title>
    <defs>
        <path d="M20,20 L0,20 L0,0 L20,0 Z" id="path-1"></path>
    </defs>
    <g id="Icon-/-Outlined-/-Operations-/-双箭头-朝下-/-20" stroke="none" fill="none" xlink:href="#path-1">
        <polygon id="矩形" points="20 0 0 2.4492936e-15 3.55271368e-15 20 20 20"></polygon>
        <path d="M10.7318174,14.763349 C10.2949233,15.0788837 9.7049851,15.0788837 9.26809101,14.763349 L4.0090226,10.965133 C3.72919399,10.7630345 3.66618124,10.3723555 3.86827968,10.0925269 C4.07037812,9.81269824 4.46105719,9.74968549 4.7408858,9.95178393 L9.9999542,13.75 L15.2590226,9.95178393 C15.5388512,9.74968549 15.9295303,9.81269824 16.1316287,10.0925269 C16.3337272,10.3723555 16.2707144,10.7630345 15.9908858,10.965133 L10.7318174,14.763349 Z" id="路径" fill="#1A1A1A" fill-rule="nonzero"></path>
        <path d="M10.7318174,9.76334904 C10.2949233,10.0788837 9.7049851,10.0788837 9.26809101,9.76334904 L4.0090226,5.96513297 C3.72919399,5.76303453 3.66618124,5.37235546 3.86827968,5.09252685 C4.07037812,4.81269824 4.46105719,4.74968549 4.7408858,4.95178393 L9.9999542,8.75 L15.2590226,4.95178393 C15.5388512,4.74968549 15.9295303,4.81269824 16.1316287,5.09252685 C16.3337272,5.37235546 16.2707144,5.76303453 15.9908858,5.96513297 L10.7318174,9.76334904 Z" id="路径" fill="#1A1A1A" fill-rule="nonzero"></path>
    </g>
</svg>