<?xml version="1.0" encoding="UTF-8"?>
<svg width="24px" height="24px" viewBox="0 0 24 24" version="1.1" xmlns="http://www.w3.org/2000/svg" xmlns:xlink="http://www.w3.org/1999/xlink">
    <title>Icon / Outlined / Operations / 双箭头 朝下 / 24</title>
    <defs>
        <path d="M24,24 L0,24 L0,0 L24,0 Z" id="path-1"></path>
    </defs>
    <g id="Icon-/-Outlined-/-Operations-/-双箭头-朝下-/-24" stroke="none" fill="none" xlink:href="#path-1">
        <polygon id="矩形" points="24 2.94209102e-15 3.55271368e-15 0 0 24 24 24"></polygon>
        <path d="M12.8781809,17.7160188 C12.353908,18.0946604 11.6459821,18.0946604 11.1217092,17.7160188 L4.81082712,13.1581596 C4.47503279,12.9156414 4.39941749,12.4468266 4.64193562,12.1110322 C4.88445375,11.7752379 5.35326862,11.6996226 5.68906296,11.9421407 L11.999945,16.5 L18.3108271,11.9421407 C18.6466215,11.6996226 19.1154363,11.7752379 19.3579545,12.1110322 C19.6004726,12.4468266 19.5248573,12.9156414 19.189063,13.1581596 L12.8781809,17.7160188 Z" id="路径" fill="#1A1A1A" fill-rule="nonzero"></path>
        <path d="M12.8781809,11.7160188 C12.353908,12.0946604 11.6459821,12.0946604 11.1217092,11.7160188 L4.81082712,7.15815956 C4.47503279,6.91564143 4.39941749,6.44682655 4.64193562,6.11103222 C4.88445375,5.77523789 5.35326862,5.69962259 5.68906296,5.94214072 L11.999945,10.5 L18.3108271,5.94214072 C18.6466215,5.69962259 19.1154363,5.77523789 19.3579545,6.11103222 C19.6004726,6.44682655 19.5248573,6.91564143 19.189063,7.15815956 L12.8781809,11.7160188 Z" id="路径" fill="#1A1A1A" fill-rule="nonzero"></path>
    </g>
</svg>