<?xml version="1.0" encoding="UTF-8"?>
<svg width="16px" height="18px" viewBox="0 0 16 18" version="1.1" xmlns="http://www.w3.org/2000/svg" xmlns:xlink="http://www.w3.org/1999/xlink">
    <title>Mouse/hover</title>
    <g id="Mouse/hover" stroke="none" fill="none" transform="translate(0, 1)">
        <path d="M3.70559852,12.2388266 C3.42559852,11.8788266 3.07559852,11.1488266 2.46559852,10.2388266 C2.11559852,9.73882662 1.25559852,8.78882662 0.995598522,8.29882662 C0.808169913,8.00105721 0.753783713,7.63848254 0.845598522,7.29882662 C1.00255849,6.65303545 1.61515969,6.22464301 2.27559852,6.29882662 C2.78639972,6.40143744 3.25582139,6.65179566 3.62559852,7.01882662 C3.88377908,7.26199977 4.12126598,7.52624576 4.33559852,7.80882662 C4.49559852,8.00882662 4.53559852,8.08882662 4.71559852,8.31882662 C4.89559852,8.54882662 5.01559852,8.77882662 4.92559852,8.43882662 C4.85559852,7.93882662 4.73559852,7.09882662 4.56559852,6.34882662 C4.43559852,5.77882662 4.40559852,5.68882662 4.28559852,5.25882662 C4.16559852,4.82882662 4.09559852,4.46882662 3.96559852,3.97882662 C3.84676527,3.49739842 3.75330316,3.01006031 3.68559852,2.51882662 C3.55955149,1.89053067 3.65125284,1.23804035 3.94559852,0.668826624 C4.29499154,0.340196146 4.8075289,0.253459055 5.24559852,0.448826624 C5.68619509,0.774162872 6.01469989,1.22847802 6.18559852,1.74882662 C6.44766371,2.38921516 6.6225595,3.06189127 6.70559852,3.74882662 C6.86559852,4.74882662 7.17559852,6.20882662 7.18559852,6.50882662 C7.18559852,6.13882662 7.11559852,5.35882662 7.18559852,5.00882662 C7.25495153,4.64395074 7.50855694,4.34113832 7.85559852,4.20882662 C8.15340767,4.11745181 8.46844401,4.09690597 8.77559852,4.14882662 C9.08563521,4.21364253 9.36026239,4.39197186 9.54559852,4.64882662 C9.77727949,5.23221961 9.9058575,5.85142423 9.92559852,6.47882662 C9.95237709,5.9294131 10.0464119,5.38535479 10.2055985,4.85882662 C10.3727026,4.62337583 10.6167307,4.45361714 10.8955985,4.37882662 C11.2261916,4.31838174 11.5650054,4.31838174 11.8955985,4.37882662 C12.166693,4.46945746 12.4038395,4.64034248 12.5755985,4.86882662 C12.787369,5.39917258 12.9155608,5.95916831 12.9555985,6.52882662 C12.9555985,6.66882662 13.0255985,6.13882662 13.2455985,5.78882662 C13.3599235,5.44942431 13.6466331,5.1967953 13.9977266,5.12610249 C14.3488201,5.05540968 14.7109581,5.17739299 14.9477266,5.44610249 C15.1844952,5.71481199 15.2599235,6.08942431 15.1455985,6.42882662 L15.1455985,7.48882662 L15.1455985,8.68882662 C15.1091598,9.27400588 15.0289353,9.85563331 14.9055985,10.4288266 C14.7315734,10.9359454 14.4893513,11.4170253 14.1855985,11.8588266 C13.7000463,12.3987907 13.2988529,13.0090092 12.9955985,13.6688266 C12.9203567,13.9966302 12.8867583,14.3326148 12.8955985,14.6688266 C12.894595,14.9794596 12.9349495,15.2888439 13.0155985,15.5888266 C12.6067376,15.6320489 12.1944594,15.6320489 11.7855985,15.5888266 C11.3955985,15.5288266 10.9155985,14.7488266 10.7855985,14.5088266 C10.7212764,14.3799592 10.5896267,14.2985322 10.4455985,14.2985322 C10.3015703,14.2985322 10.1699206,14.3799592 10.1055985,14.5088266 C9.88559852,14.8888266 9.39559852,15.5788266 9.05559852,15.6188266 C8.38559852,15.6988266 7.00559852,15.6188266 5.91559852,15.6188266 C5.91559852,15.6188266 6.09559852,14.6188266 5.68559852,14.2588266 C5.27559852,13.8988266 4.85559852,13.4788266 4.54559852,13.1988266 L3.70559852,12.2388266 Z" id="Shape" fill="#FFFFFF" fill-rule="nonzero"></path>
        <path d="M3.70559852,12.2388266 C3.42559852,11.8788266 3.07559852,11.1488266 2.46559852,10.2388266 C2.11559852,9.73882662 1.25559852,8.78882662 0.995598522,8.29882662 C0.808169913,8.00105721 0.753783713,7.63848254 0.845598522,7.29882662 C1.00255849,6.65303545 1.61515969,6.22464301 2.27559852,6.29882662 C2.78639972,6.40143744 3.25582139,6.65179566 3.62559852,7.01882662 C3.88377908,7.26199977 4.12126598,7.52624576 4.33559852,7.80882662 C4.49559852,8.00882662 4.53559852,8.08882662 4.71559852,8.31882662 C4.89559852,8.54882662 5.01559852,8.77882662 4.92559852,8.43882662 C4.85559852,7.93882662 4.73559852,7.09882662 4.56559852,6.34882662 C4.43559852,5.77882662 4.40559852,5.68882662 4.28559852,5.25882662 C4.16559852,4.82882662 4.09559852,4.46882662 3.96559852,3.97882662 C3.84676527,3.49739842 3.75330316,3.01006031 3.68559852,2.51882662 C3.55955149,1.89053067 3.65125284,1.23804035 3.94559852,0.668826624 C4.29499154,0.340196146 4.8075289,0.253459055 5.24559852,0.448826624 C5.68619509,0.774162872 6.01469989,1.22847802 6.18559852,1.74882662 C6.44766371,2.38921516 6.6225595,3.06189127 6.70559852,3.74882662 C6.86559852,4.74882662 7.17559852,6.20882662 7.18559852,6.50882662 C7.18559852,6.13882662 7.11559852,5.35882662 7.18559852,5.00882662 C7.25495153,4.64395074 7.50855694,4.34113832 7.85559852,4.20882662 C8.15340767,4.11745181 8.46844401,4.09690597 8.77559852,4.14882662 C9.08563521,4.21364253 9.36026239,4.39197186 9.54559852,4.64882662 C9.77727949,5.23221961 9.9058575,5.85142423 9.92559852,6.47882662 C9.95237709,5.9294131 10.0464119,5.38535479 10.2055985,4.85882662 C10.3727026,4.62337583 10.6167307,4.45361714 10.8955985,4.37882662 C11.2261916,4.31838174 11.5650054,4.31838174 11.8955985,4.37882662 C12.166693,4.46945746 12.4038395,4.64034248 12.5755985,4.86882662 C12.787369,5.39917258 12.9155608,5.95916831 12.9555985,6.52882662 C12.9555985,6.66882662 13.0255985,6.13882662 13.2455985,5.78882662 C13.3599235,5.44942431 13.6466331,5.1967953 13.9977266,5.12610249 C14.3488201,5.05540968 14.7109581,5.17739299 14.9477266,5.44610249 C15.1844952,5.71481199 15.2599235,6.08942431 15.1455985,6.42882662 L15.1455985,7.48882662 L15.1455985,8.68882662 C15.1091598,9.27400588 15.0289353,9.85563331 14.9055985,10.4288266 C14.7315734,10.9359454 14.4893513,11.4170253 14.1855985,11.8588266 C13.7000463,12.3987907 13.2988529,13.0090092 12.9955985,13.6688266 C12.9203567,13.9966302 12.8867583,14.3326148 12.8955985,14.6688266 C12.894595,14.9794596 12.9349495,15.2888439 13.0155985,15.5888266 C12.6067376,15.6320489 12.1944594,15.6320489 11.7855985,15.5888266 C11.3955985,15.5288266 10.9155985,14.7488266 10.7855985,14.5088266 C10.7212764,14.3799592 10.5896267,14.2985322 10.4455985,14.2985322 C10.3015703,14.2985322 10.1699206,14.3799592 10.1055985,14.5088266 C9.88559852,14.8888266 9.39559852,15.5788266 9.05559852,15.6188266 C8.38559852,15.6988266 7.00559852,15.6188266 5.91559852,15.6188266 C5.91559852,15.6188266 6.09559852,14.6188266 5.68559852,14.2588266 C5.27559852,13.8988266 4.85559852,13.4788266 4.54559852,13.1988266 L3.70559852,12.2388266 Z" id="Shape" stroke="#000000" stroke-width="0.75" stroke-linecap="round" stroke-linejoin="round"></path>
        <path d="M12.6101378,12.9228322 L12.6101378,9.47105087 C12.6101378,9.26443603 12.4422446,9.09694162 12.2351378,9.09694162 C12.028031,9.09694162 11.8601378,9.26443603 11.8601378,9.47105087 L11.8601378,12.9228322 C11.8601378,13.129447 12.028031,13.2969414 12.2351378,13.2969414 C12.4422446,13.2969414 12.6101378,13.129447 12.6101378,12.9228322 Z" id="Shape" fill="#000000" fill-rule="nonzero"></path>
        <path d="M10.4084252,12.9215675 L10.3884252,9.46801336 C10.3872316,9.26189157 10.2183735,9.09575993 10.0112701,9.09693535 C9.80416678,9.09813597 9.63724401,9.26619378 9.63843133,9.47231557 L9.65843769,12.9258697 C9.65963137,13.1319915 9.82848947,13.2981231 10.0355928,13.2969477 C10.2426961,13.2957471 10.4096189,13.1276893 10.4084252,12.9215675 Z" id="Shape" fill="#000000" fill-rule="nonzero"></path>
        <path d="M7.41561103,9.47593299 L7.43561754,12.9223441 C7.43682514,13.1304382 7.60569446,13.2981482 7.81279772,13.2969479 C8.01990098,13.2957215 8.18681239,13.1260442 8.18560479,12.91795 L8.16560479,9.47153896 C8.16439719,9.2634448 7.99552788,9.09573479 7.78842462,9.09693515 C7.58132135,9.09816154 7.41440994,9.26783883 7.41561103,9.47593299 Z" id="Shape" fill="#000000" fill-rule="nonzero"></path>
    </g>
</svg>