<?xml version="1.0" encoding="UTF-8"?>
<svg width="16px" height="16px" viewBox="0 0 16 16" version="1.1" xmlns="http://www.w3.org/2000/svg" xmlns:xlink="http://www.w3.org/1999/xlink">
    <title>Icon / Outlined / Status / 深度思考 / 16</title>
    <g id="Icon-/-Outlined-/-Status-/-深度思考-/-16" stroke="none" fill="none" fill-rule="nonzero">
        <path d="M9.01373823,1.32455047 L12.0683092,3.03806466 L12.0420297,3.05326275 C12.3431464,2.87609507 12.6940524,2.77448299 13.0686912,2.77448299 C14.1884355,2.77448299 15.0961676,3.68221512 15.0961676,4.80195945 C15.0961676,5.54122434 14.7005095,6.18807831 14.1093996,6.54231492 L14.1461699,6.51974425 L14.1454614,9.9597467 C14.1454614,10.6634594 13.7590266,11.3137167 13.1317232,11.665573 L9.95587264,13.4478603 L9.97010648,13.392748 C9.75420197,14.2803675 8.95405682,14.9393418 8,14.9393418 C7.05316267,14.9393418 6.2579165,14.2903029 6.03489505,13.4128588 L6.04412736,13.4478603 L2.8682768,11.665573 C2.2409734,11.3137167 1.85453856,10.6634594 1.85453856,9.9597467 L1.85305546,6.51925709 C1.28357743,6.16175716 0.903832371,5.52620541 0.903832371,4.80195945 C0.903832371,3.68221512 1.8115645,2.77448299 2.93130884,2.77448299 C3.3109539,2.77448299 3.66622766,2.87882891 3.97001504,3.06040565 L3.9306751,3.03748776 L6.98626177,1.32455047 C7.61356517,0.972694138 8.38643483,0.972694138 9.01373823,1.32455047 Z M8,11.8981271 C7.44012783,11.8981271 6.98626177,12.3519931 6.98626177,12.9118653 C6.98626177,13.4717375 7.44012783,13.9256035 8,13.9256035 C8.55987217,13.9256035 9.01373823,13.4717375 9.01373823,12.9118653 C9.01373823,12.3519931 8.55987217,11.8981271 8,11.8981271 Z M2.93130884,6.82943592 L2.8419846,6.82750351 C2.85072624,6.82788248 2.85948224,6.82820609 2.86825225,6.82847401 L2.8682768,9.9597467 C2.8682768,10.311603 3.06149421,10.6367317 3.37514591,10.8126599 L6.06082669,12.3181912 C6.26407848,11.6432496 6.82037487,11.1121018 7.51810995,10.9420042 L7.4929888,10.9482998 L7.49313088,7.92867191 L4.44421322,6.15172364 L4.45605383,6.13834366 C4.08445122,6.56198252 3.53911357,6.82943592 2.93130884,6.82943592 Z M11.5548718,6.15069815 L8.50653856,7.92665822 L8.5070112,10.9482998 L8.47685101,10.9407826 C9.17694602,11.1095466 9.73542654,11.6416061 9.94163508,12.3263033 L12.6248541,10.8126599 C12.9385058,10.6367317 13.1317232,10.311603 13.1317232,9.9597467 L13.1317477,6.82847401 C13.1108072,6.82911373 13.0897868,6.82943592 13.0686912,6.82943592 C12.508819,6.82943592 12.0019499,6.60250288 11.6350488,6.23560181 L11.5548718,6.15069815 Z M7.49313088,2.17746364 L4.67046374,3.75925025 L4.64723036,3.72152207 C4.84458518,4.03429804 4.9587853,4.40479231 4.9587853,4.80195945 C4.9587853,4.97017378 4.93829983,5.13360348 4.89968756,5.28988987 L4.90431996,5.27073783 L7.99853856,7.07465822 L11.0954413,5.26972787 L11.1064222,5.31397995 C11.0638646,5.15042475 11.0412147,4.97883718 11.0412147,4.80195945 C11.0412147,4.40479231 11.1554148,4.03429804 11.3527696,3.72152207 L11.3295363,3.75925025 L8.50686912,2.17746364 C8.19321742,2.00153547 7.80678258,2.00153547 7.49313088,2.17746364 Z M2.93130884,3.78822122 C2.37143667,3.78822122 1.9175706,4.24208729 1.9175706,4.80195945 C1.9175706,5.36183162 2.37143667,5.81569768 2.93130884,5.81569768 C3.491181,5.81569768 3.94504707,5.36183162 3.94504707,4.80195945 C3.94504707,4.24208729 3.491181,3.78822122 2.93130884,3.78822122 Z M13.0686912,3.78822122 C12.508819,3.78822122 12.0549529,4.24208729 12.0549529,4.80195945 C12.0549529,5.36183162 12.508819,5.81569768 13.0686912,5.81569768 C13.6285633,5.81569768 14.0824294,5.36183162 14.0824294,4.80195945 C14.0824294,4.24208729 13.6285633,3.78822122 13.0686912,3.78822122 Z" id="形状结合备份-2" fill="#1A1A1A"></path>
    </g>
</svg>