<?xml version="1.0" encoding="UTF-8"?>
<svg width="20px" height="20px" viewBox="0 0 20 20" version="1.1" xmlns="http://www.w3.org/2000/svg" xmlns:xlink="http://www.w3.org/1999/xlink">
    <title>Icon / Outlined / Status / 深度思考 / 20</title>
    <g id="Icon-/-Outlined-/-Status-/-深度思考-/-20" stroke="none" fill="none" fill-rule="nonzero">
        <path d="M11.2671728,1.65568809 L15.0847515,3.79794187 L15.0443132,3.82143802 C15.4225378,3.59697794 15.8641508,3.46810373 16.335864,3.46810373 C17.7355444,3.46810373 18.8702095,4.6027689 18.8702095,6.00244931 C18.8702095,6.92561631 18.3766148,7.73349808 17.6389416,8.17657852 L17.682397,8.14987854 L17.6818268,12.4496834 C17.6818268,13.3293242 17.1987833,14.1421459 16.414654,14.5819663 L12.4448252,16.8098823 C12.4595034,16.7562023 12.4724609,16.7018116 12.4836348,16.6467732 C12.2486953,17.8036143 11.2260131,18.6741772 10,18.6741772 C8.82863109,18.6741772 7.8428718,17.879488 7.55245059,16.7998379 L3.585346,14.5819663 C2.80121674,14.1421459 2.3181732,13.3293242 2.3181732,12.4496834 L2.31693187,8.14945666 C1.60457431,7.70236803 1.12979046,6.90785453 1.12979046,6.00244931 C1.12979046,4.6027689 2.26445563,3.46810373 3.66413605,3.46810373 C4.13376016,3.46810373 4.57355011,3.59583897 4.9506579,3.81846145 L4.91321423,3.79678612 L8.73282721,1.65568809 C9.51695646,1.21586767 10.4830435,1.21586767 11.2671728,1.65568809 Z M10,14.8726589 C9.30015979,14.8726589 8.73282721,15.4399914 8.73282721,16.1398316 C8.73282721,16.8396718 9.30015979,17.4070044 10,17.4070044 C10.6998402,17.4070044 11.2671728,16.8396718 11.2671728,16.1398316 C11.2671728,15.4399914 10.6998402,14.8726589 10,14.8726589 Z M3.66413605,8.5367949 L3.5457858,8.5340804 C3.55882231,8.53467966 3.57188451,8.53518044 3.58497169,8.53558199 L3.585346,12.4496834 C3.585346,12.8895038 3.82686777,13.2959146 4.21893239,13.5158248 L7.57566413,15.3989476 L7.56618138,15.4307671 C7.81970497,14.5590792 8.52882448,13.8813434 9.41861257,13.6724869 L9.36591582,13.6854572 L9.3664136,9.91083989 L5.55571147,7.68915605 L5.57700959,7.66498201 C5.11237,8.19913096 4.42768584,8.5367949 3.66413605,8.5367949 Z M14.4229904,7.66498201 L14.4433951,7.68815425 L10.6331732,9.90882278 L10.6330939,13.6852023 L10.5973414,13.6762866 C11.4796459,13.8894614 12.1818121,14.5642954 12.4338186,15.4307671 L12.4243359,15.3989476 L15.7810676,13.5158248 C16.1731322,13.2959146 16.414654,12.8895038 16.414654,12.4496834 L16.4134946,8.5356286 C16.3877127,8.53640428 16.3618339,8.5367949 16.335864,8.5367949 C15.5723142,8.5367949 14.88763,8.19913096 14.4229904,7.66498201 Z M9.3664136,2.72182955 L5.83855931,4.69986141 L5.8313105,4.68786223 C6.06430309,5.07114252 6.19848163,5.52112638 6.19848163,6.00244931 C6.19848163,6.2107075 6.17336195,6.41309866 6.12598719,6.60675821 L6.13030422,6.58882654 L9.9981732,8.84282278 L13.869224,6.58683108 L13.8769613,6.61868505 C13.827681,6.42141363 13.8015184,6.21498677 13.8015184,6.00244931 C13.8015184,5.52655797 13.9326857,5.08130239 14.1608395,4.7008633 L10.6335864,2.72182955 C10.2415218,2.50191934 9.75847823,2.50191934 9.3664136,2.72182955 Z M3.66413605,4.73527652 C2.96429584,4.73527652 2.39696325,5.30260911 2.39696325,6.00244931 C2.39696325,6.70228952 2.96429584,7.26962211 3.66413605,7.26962211 C4.36397625,7.26962211 4.93130884,6.70228952 4.93130884,6.00244931 C4.93130884,5.30260911 4.36397625,4.73527652 3.66413605,4.73527652 Z M16.335864,4.73527652 C15.6360237,4.73527652 15.0686912,5.30260911 15.0686912,6.00244931 C15.0686912,6.70228952 15.6360237,7.26962211 16.335864,7.26962211 C17.0357042,7.26962211 17.6030367,6.70228952 17.6030367,6.00244931 C17.6030367,5.30260911 17.0357042,4.73527652 16.335864,4.73527652 Z" id="形状结合备份-2" fill="#1A1A1A"></path>
    </g>
</svg>