<?xml version="1.0" encoding="UTF-8"?>
<svg width="24px" height="24px" viewBox="0 0 24 24" version="1.1" xmlns="http://www.w3.org/2000/svg" xmlns:xlink="http://www.w3.org/1999/xlink">
    <title>Icon / Outlined / Status / 深度思考 / 24</title>
    <g id="Icon-/-Outlined-/-Status-/-深度思考-/-24" stroke="none" fill="none" fill-rule="nonzero">
        <path d="M13.5206073,1.98682571 L18.1013986,4.55770273 C18.5444076,4.30567502 19.0569114,4.16172448 19.6030367,4.16172448 C21.2826532,4.16172448 22.6442514,5.52332268 22.6442514,7.20293918 C22.6442514,8.31685151 22.045384,9.29089085 21.1520516,9.8206546 L21.2186425,9.78000119 L21.2181922,14.93962 C21.2181922,15.9951891 20.6385399,16.970575 19.6975848,17.4983595 L14.9341283,20.1706217 L14.9434582,20.135618 C14.6032439,21.4434991 13.4143759,22.4090127 12,22.4090127 C10.5849014,22.4090127 9.39554113,21.4425121 9.05602088,20.1336128 L9.06587174,20.1706217 L4.30241519,17.4983595 C3.36146009,16.970575 2.78180785,15.9951891 2.78180785,14.93962 L2.78046863,9.77944254 L2.82197388,9.80507578 C1.94302676,9.27193594 1.35574856,8.30602065 1.35574856,7.20293918 C1.35574856,5.52332268 2.71734676,4.16172448 4.39696325,4.16172448 C4.95766856,4.16172448 5.48293326,4.31346377 5.93393344,4.57811843 L5.89657346,4.55655004 L10.4793927,1.98682571 C11.4203478,1.45904121 12.5796522,1.45904121 13.5206073,1.98682571 Z M12,17.8471906 C11.1601918,17.8471906 10.4793927,18.5279897 10.4793927,19.367798 C10.4793927,20.2076062 11.1601918,20.8884053 12,20.8884053 C12.8398082,20.8884053 13.5206073,20.2076062 13.5206073,19.367798 C13.5206073,18.5279897 12.8398082,17.8471906 12,17.8471906 Z M5.06271887,16.2189898 L9.09131196,18.4770516 C9.40067742,17.4655888 10.2231498,16.6782293 11.255272,16.4184301 L11.2392005,16.4225225 L11.2396963,11.8930079 L6.66735193,9.22642884 C6.11037653,9.8509237 5.29959181,10.2441539 4.39696325,10.2441539 L4.28270511,10.2420472 C4.2890665,10.2422822 4.29543289,10.2424976 4.30180421,10.2426934 L4.30241519,14.93962 C4.30241519,15.4674046 4.59224132,15.9550975 5.06271887,16.2189898 Z M17.2954374,9.18392356 L17.3326481,9.22642884 L12.7598078,11.8899873 L12.7607995,16.4225225 L12.7386925,16.4169175 C13.7767366,16.6759337 14.6036503,17.4683362 14.9114538,18.4861452 L18.9372811,16.2189898 C19.4077587,15.9550975 19.6975848,15.4674046 19.6975848,14.93962 L19.6977249,10.2427079 C19.6662799,10.2436695 19.6347149,10.2441539 19.6030367,10.2441539 C18.6800979,10.2441539 17.8531825,9.83302822 17.2954374,9.18392356 Z M11.2396963,3.26619546 L7.00572154,5.63891853 L6.99060746,5.6140333 C7.27448791,6.07643698 7.43817795,6.62057215 7.43817795,7.20293918 C7.43817795,7.44469121 7.40997017,7.67985496 7.35666636,7.90531867 L11.9988078,10.6119873 L16.6433336,7.90531867 C16.5900298,7.67985496 16.561822,7.44469121 16.561822,7.20293918 C16.561822,6.61723957 16.7273909,6.07021064 17.0142778,5.60610308 L16.9936787,5.63991718 L12.7603037,3.26619546 C12.2898261,3.00230321 11.7101739,3.00230321 11.2396963,3.26619546 Z M4.39696325,5.68233183 C3.55715501,5.68233183 2.87635591,6.36313093 2.87635591,7.20293918 C2.87635591,8.04274743 3.55715501,8.72354653 4.39696325,8.72354653 C5.2367715,8.72354653 5.9175706,8.04274743 5.9175706,7.20293918 C5.9175706,6.36313093 5.2367715,5.68233183 4.39696325,5.68233183 Z M19.6030367,5.68233183 C18.7632285,5.68233183 18.0824294,6.36313093 18.0824294,7.20293918 C18.0824294,8.04274743 18.7632285,8.72354653 19.6030367,8.72354653 C20.442845,8.72354653 21.1236441,8.04274743 21.1236441,7.20293918 C21.1236441,6.36313093 20.442845,5.68233183 19.6030367,5.68233183 Z" id="形状结合备份-2" fill="#1A1A1A"></path>
    </g>
</svg>