<?xml version="1.0" encoding="UTF-8"?>
<svg width="16px" height="16px" viewBox="0 0 16 16" version="1.1" xmlns="http://www.w3.org/2000/svg" xmlns:xlink="http://www.w3.org/1999/xlink">
    <title>Icon / Outlined / Operations / 创建/ 16</title>
    <defs>
        <path d="M14.3333333,2.33333333 L14.3333333,9.66666667 C14.3333333,10.0348667 14.0348667,10.3333333 13.6666667,10.3333333 L12.3333333,10.3333333 L9.66666667,7.22166667 L9.66666667,13.3333333 C9.66666667,13.7015232 9.36818983,14 9,14 L2.33333333,14 C1.9651435,14 1.66666667,13.7015232 1.66666667,13.3333333 L1.66666667,6.66666667 C1.66666667,6.29847683 1.9651435,6 2.33333333,6 L8.61866667,5.99966667 L6.33333333,3.33333333 L6.33333333,2.33333333 C6.33333333,1.96514333 6.6318,1.66666667 7,1.66666667 L13.6666667,1.66666667 C14.0348667,1.66666667 14.3333333,1.96514333 14.3333333,2.33333333 Z" id="path-1"></path>
    </defs>
    <g id="Icon-/-Outlined-/-Operations-/-创建/-16" stroke="none" fill="none" xlink:href="#path-1" fill-rule="evenodd" stroke-linecap="round" stroke-linejoin="round" stroke-width="1">
        <g id="编组" transform="translate(1.6667, 1.6667)" stroke="#1A1A1A">
            <path d="M4.66666667,1.66666667 L4.66666667,0.666666667 C4.66666667,0.298476667 4.96513333,0 5.33333333,0 L12,0 C12.3682,0 12.6666667,0.298476667 12.6666667,0.666666667 L12.6666667,8 C12.6666667,8.3682 12.3682,8.66666667 12,8.66666667 L10.6666667,8.66666667" id="路径"></path>
            <rect id="矩形" x="0" y="4.33333333" width="8" height="8" rx="0.666666687"></rect>
            <line x1="4" y1="6.66666667" x2="4" y2="10" id="路径"></line>
            <line x1="2.33333333" y1="8.33333333" x2="5.66666667" y2="8.33333333" id="路径"></line>
        </g>
    </g>
</svg>