<?xml version="1.0" encoding="UTF-8"?>
<svg width="20px" height="20px" viewBox="0 0 20 20" version="1.1" xmlns="http://www.w3.org/2000/svg" xmlns:xlink="http://www.w3.org/1999/xlink">
    <title>Icon / Outlined / Operations / 创建/ 20</title>
    <defs>
        <path d="M17.9166667,2.91666667 L17.9166667,12.0833333 C17.9166667,12.5435833 17.5435833,12.9166667 17.0833333,12.9166667 L15.4166667,12.9166667 L12.0833333,9.02733333 L12.0833333,16.6666667 C12.0833333,17.126904 11.7102373,17.5 11.25,17.5 L2.91666667,17.5 C2.45642938,17.5 2.08333333,17.126904 2.08333333,16.6666667 L2.08333333,8.33333333 C2.08333333,7.87309604 2.45642938,7.5 2.91666667,7.5 L10.7733333,7.49933333 L7.91666667,4.16666667 L7.91666667,2.91666667 C7.91666667,2.45642917 8.28975,2.08333333 8.75,2.08333333 L17.0833333,2.08333333 C17.5435833,2.08333333 17.9166667,2.45642917 17.9166667,2.91666667 Z" id="path-1"></path>
    </defs>
    <g id="Icon-/-Outlined-/-Operations-/-创建/-20" stroke="none" fill="none" xlink:href="#path-1" fill-rule="evenodd" stroke-linecap="round" stroke-linejoin="round" stroke-width="1">
        <g id="编组" transform="translate(2.0833, 2.0833)" stroke="#1A1A1A">
            <path d="M5.83333333,2.08333333 L5.83333333,0.833333333 C5.83333333,0.373095833 6.20641667,0 6.66666667,0 L15,0 C15.46025,0 15.8333333,0.373095833 15.8333333,0.833333333 L15.8333333,10 C15.8333333,10.46025 15.46025,10.8333333 15,10.8333333 L13.3333333,10.8333333" id="路径" stroke-width="1.25"></path>
            <rect id="矩形" stroke-width="1.25" x="0" y="5.41666667" width="10" height="10" rx="0.833333313"></rect>
            <line x1="5" y1="8.33333333" x2="5" y2="12.5" id="路径" stroke-width="1.25"></line>
            <line x1="2.91666667" y1="10.4166667" x2="7.08333333" y2="10.4166667" id="路径" stroke-width="1.25"></line>
        </g>
    </g>
</svg>