<?xml version="1.0" encoding="UTF-8"?>
<svg width="24px" height="24px" viewBox="0 0 24 24" version="1.1" xmlns="http://www.w3.org/2000/svg" xmlns:xlink="http://www.w3.org/1999/xlink">
    <title>Icon / Outlined / Operations / 创建/ 24</title>
    <defs>
        <path d="M21.5,3.5 L21.5,14.5 C21.5,15.0523 21.0523,15.5 20.5,15.5 L18.5,15.5 L14.5,10.833 L14.5,20 C14.5,20.5522847 14.0522847,21 13.5,21 L3.5,21 C2.94771525,21 2.5,20.5522847 2.5,20 L2.5,10 C2.5,9.44771525 2.94771525,9 3.5,9 L12.929,9 L9.5,5 L9.5,3.5 C9.5,2.947715 9.9477,2.5 10.5,2.5 L20.5,2.5 C21.0523,2.5 21.5,2.947715 21.5,3.5 Z" id="path-1"></path>
    </defs>
    <g id="Icon-/-Outlined-/-Operations-/-创建/-24" stroke="none" fill="none" xlink:href="#path-1" fill-rule="evenodd" stroke-linecap="round" stroke-linejoin="round" stroke-width="1">
        <g id="编组" transform="translate(2.5, 2.5)" stroke="#1A1A1A">
            <path d="M7,2.5 L7,1 C7,0.447715 7.4477,0 8,0 L18,0 C18.5523,0 19,0.447715 19,1 L19,12 C19,12.5523 18.5523,13 18,13 L16,13" id="路径" stroke-width="1.5"></path>
            <rect id="矩形" stroke-width="1.5" x="0" y="6.5" width="12" height="12" rx="1"></rect>
            <line x1="6" y1="10" x2="6" y2="15" id="路径" stroke-width="1.5"></line>
            <line x1="3.5" y1="12.5" x2="8.5" y2="12.5" id="路径" stroke-width="1.5"></line>
        </g>
    </g>
</svg>