<?xml version="1.0" encoding="UTF-8"?>
<svg width="26px" height="24px" viewBox="0 0 26 24" version="1.1" xmlns="http://www.w3.org/2000/svg" xmlns:xlink="http://www.w3.org/1999/xlink">
    <title>@2xMouse/拖拽</title>
    <defs>
        <path d="M8,1 C8.41421356,1 8.75,1.33578644 8.75,1.75 L8.749,7.249 L12.4991068,7.249 L12.5,6.20710678 C12.5,5.76165436 13.038571,5.53857096 13.3535534,5.85355339 L15.1464466,7.64644661 C15.3417088,7.84170876 15.3417088,8.15829124 15.1464466,8.35355339 L13.3535534,10.1464466 C13.038571,10.461429 12.5,10.2383456 12.5,9.79289322 L12.4991068,8.749 L8.749,8.749 L8.75,14.25 C8.75,14.6642136 8.41421356,15 8,15 C7.58578644,15 7.25,14.6642136 7.25,14.25 L7.249,8.749 L3.49910678,8.749 L3.5,9.79289322 C3.5,10.2086488 3.03084485,10.4306963 2.71219845,10.2023624 L2.64644661,10.1464466 L0.853553391,8.35355339 C0.658291245,8.15829124 0.658291245,7.84170876 0.853553391,7.64644661 L2.64644661,5.85355339 C2.96142904,5.53857096 3.5,5.76165436 3.5,6.20710678 L3.49910678,7.249 L7.249,7.249 L7.25,1.75 C7.25,1.33578644 7.58578644,1 8,1 Z" id="path-1"></path>
        <filter x="-54.8%" y="-42.9%" width="209.7%" height="214.3%" filterUnits="objectBoundingBox" id="filter-2">
            <feMorphology radius="1" operator="dilate" in="SourceAlpha" result="shadowSpreadOuter1"></feMorphology>
            <feOffset dx="0" dy="2" in="shadowSpreadOuter1" result="shadowOffsetOuter1"></feOffset>
            <feGaussianBlur stdDeviation="2" in="shadowOffsetOuter1" result="shadowBlurOuter1"></feGaussianBlur>
            <feComposite in="shadowBlurOuter1" in2="SourceAlpha" operator="out" result="shadowBlurOuter1"></feComposite>
            <feColorMatrix values="0 0 0 0 0   0 0 0 0 0   0 0 0 0 0  0 0 0 0.12 0" type="matrix" in="shadowBlurOuter1"></feColorMatrix>
        </filter>
    </defs>
    <g id="Mouse/拖拽" stroke="none" fill="none" transform="translate(5, 2)" fill-rule="nonzero">
        <g id="形状结合">
            <use fill="black" fill-opacity="1" filter="url(#filter-2)" xlink:href="#path-1"></use>
            <path stroke="#FFFFFF" stroke-width="1" d="M9.25,1.75 L9.24999999,1.75009093 L9.24909091,6.74900001 L11.9995353,6.74900001 L12,6.20710678 C12,5.31620193 13.0771419,4.87003514 13.7071068,5.5 L15.5,7.29289322 C15.8905243,7.68341751 15.8905243,8.31658249 15.5,8.70710678 L13.7071068,10.5 C13.0771419,11.1299649 12,10.6837981 12.0000002,9.79332105 L11.9995344,9.24899999 L9.24909088,9.24899999 L9.25,14.25 C9.25,14.9403559 8.69035594,15.5 8,15.5 C7.30964406,15.5 6.75,14.9403559 6.75000001,14.2500909 L6.7490909,9.24899999 L3.99953471,9.24899999 L4,9.79289322 C4,10.6114673 3.07397358,11.0767189 2.38828429,10.5832556 L2.29289322,10.5 L0.5,8.70710678 C0.109475708,8.31658249 0.109475708,7.68341751 0.5,7.29289322 L2.29289322,5.5 C2.92285808,4.87003514 4,5.31620193 3.99999982,6.20753543 L3.99953563,6.74900001 L6.74909093,6.74900001 L6.75,1.75 C6.75,1.05964406 7.30964406,0.5 8,0.5 C8.69035594,0.5 9.25,1.05964406 9.25,1.75 Z" fill="#222222" fill-rule="evenodd"></path>
        </g>
    </g>
</svg>