<?xml version="1.0" encoding="UTF-8"?>
<svg width="16px" height="16px" viewBox="0 0 16 16" version="1.1" xmlns="http://www.w3.org/2000/svg" xmlns:xlink="http://www.w3.org/1999/xlink">
    <title>Icon / Outlined / Data / AI标识 / 16</title>
    <defs>
        <path d="M16,0 L16,16 L0,16 L0,0 L16,0 Z" id="path-1"></path>
    </defs>
    <g id="Icon-/-Outlined-/-Data-/-AI标识-/-16" stroke="none" fill="none" xlink:href="#path-1">
        <rect id="矩形" x="0" y="0" width="16" height="16"></rect>
        <rect id="矩形" stroke="#1A1A1A" stroke-width="1" x="1.5" y="1.5" width="13" height="13" rx="3"></rect>
        <path d="M6.30294451,4.11049724 L3.5,12 L4.68233296,12 L5.36523216,9.96685083 L8.49433749,9.96685083 L9.17723669,12 L10.3697622,12 L7.56681767,4.11049724 L6.30294451,4.11049724 Z M5.7015855,8.97237569 L6.91449604,5.40331492 L6.95526614,5.40331492 L8.15798414,8.97237569 L5.7015855,8.97237569 Z M11.7457531,4 C11.5317101,4 11.3584371,4.06629834 11.2157418,4.22099448 C11.0730464,4.36464088 11.0016988,4.55248619 11.0016988,4.78453039 C11.0016988,5.00552486 11.0730464,5.20441989 11.2157418,5.35911602 C11.3584371,5.50276243 11.5317101,5.5801105 11.7457531,5.5801105 C11.9496036,5.5801105 12.1330691,5.50276243 12.2757644,5.35911602 C12.4184598,5.20441989 12.5,5.01657459 12.5,4.78453039 C12.5,4.55248619 12.4286523,4.36464088 12.285957,4.22099448 C12.1432616,4.06629834 11.9597961,4 11.7457531,4 Z M11.2055493,6.28729282 L11.2055493,12 L12.285957,12 L12.285957,6.28729282 L11.2055493,6.28729282 Z" id="形状结合" fill="#1A1A1A" fill-rule="nonzero"></path>
    </g>
</svg>