<?xml version="1.0" encoding="UTF-8"?>
<svg width="20px" height="20px" viewBox="0 0 20 20" version="1.1" xmlns="http://www.w3.org/2000/svg" xmlns:xlink="http://www.w3.org/1999/xlink">
    <title>Icon / Outlined / Data / AI标识 / 20</title>
    <defs>
        <path d="M20,0 L20,20 L0,20 L0,0 L20,0 Z" id="path-1"></path>
    </defs>
    <g id="Icon-/-Outlined-/-Data-/-AI标识-/-20" stroke="none" fill="none" xlink:href="#path-1">
        <rect id="矩形" x="0" y="0" width="20" height="20"></rect>
        <rect id="矩形" stroke="#1A1A1A" stroke-width="1.25" x="1.875" y="1.875" width="16.25" height="16.25" rx="3.75"></rect>
        <path d="M7.87868063,5.13812155 L4.375,15 L5.85291619,15 L6.7065402,12.4585635 L10.6179219,12.4585635 L11.4715459,15 L12.9622027,15 L9.45852208,5.13812155 L7.87868063,5.13812155 Z M7.12698188,11.2154696 L8.64312005,6.75414365 L8.69408267,6.75414365 L10.1974802,11.2154696 L7.12698188,11.2154696 Z M14.6821914,5 C14.4146376,5 14.1980464,5.08287293 14.0196772,5.27624309 C13.841308,5.4558011 13.7521234,5.69060773 13.7521234,5.98066298 C13.7521234,6.25690608 13.841308,6.50552486 14.0196772,6.69889503 C14.1980464,6.87845304 14.4146376,6.97513812 14.6821914,6.97513812 C14.9370045,6.97513812 15.1663364,6.87845304 15.3447055,6.69889503 C15.5230747,6.50552486 15.625,6.27071823 15.625,5.98066298 C15.625,5.69060773 15.5358154,5.4558011 15.3574462,5.27624309 C15.179077,5.08287293 14.9497452,5 14.6821914,5 Z M14.0069366,7.85911602 L14.0069366,15 L15.3574462,15 L15.3574462,7.85911602 L14.0069366,7.85911602 Z" id="形状结合" fill="#1A1A1A" fill-rule="nonzero"></path>
    </g>
</svg>