<?xml version="1.0" encoding="UTF-8"?>
<svg width="24px" height="24px" viewBox="0 0 24 24" version="1.1" xmlns="http://www.w3.org/2000/svg" xmlns:xlink="http://www.w3.org/1999/xlink">
    <title>Icon / Outlined / Data / AI标识 / 24</title>
    <defs>
        <path d="M24,0 L24,24 L0,24 L0,0 L24,0 Z" id="path-1"></path>
    </defs>
    <g id="Icon-/-Outlined-/-Data-/-AI标识-/-24" stroke="none" fill="none" xlink:href="#path-1">
        <rect id="矩形" x="0" y="0" width="24" height="24"></rect>
        <rect id="矩形" stroke="#1A1A1A" stroke-width="1.5" x="2.25" y="2.25" width="19.5" height="19.5" rx="4.5"></rect>
        <path d="M9.45441676,6.16574586 L5.25,18 L7.02349943,18 L8.04784824,14.9502762 L12.7415062,14.9502762 L13.765855,18 L15.5546433,18 L11.3502265,6.16574586 L9.45441676,6.16574586 Z M8.55237826,13.4585635 L10.3717441,8.10497238 L10.4328992,8.10497238 L12.2369762,13.4585635 L8.55237826,13.4585635 Z M17.6186297,6 C17.2975651,6 17.0376557,6.09944751 16.8236127,6.33149171 C16.6095696,6.54696133 16.5025481,6.82872928 16.5025481,7.17679558 C16.5025481,7.50828729 16.6095696,7.80662983 16.8236127,8.03867403 C17.0376557,8.25414365 17.2975651,8.37016575 17.6186297,8.37016575 C17.9244054,8.37016575 18.1996036,8.25414365 18.4136467,8.03867403 C18.6276897,7.80662983 18.75,7.52486188 18.75,7.17679558 C18.75,6.82872928 18.6429785,6.54696133 18.4289354,6.33149171 C18.2148924,6.09944751 17.9396942,6 17.6186297,6 Z M16.8083239,9.43093923 L16.8083239,18 L18.4289354,18 L18.4289354,9.43093923 L16.8083239,9.43093923 Z" id="形状结合" fill="#1A1A1A" fill-rule="nonzero"></path>
    </g>
</svg>