<?xml version="1.0" encoding="UTF-8"?>
<svg width="24px" height="24px" viewBox="0 0 24 24" version="1.1" xmlns="http://www.w3.org/2000/svg" xmlns:xlink="http://www.w3.org/1999/xlink">
    <title>Icon / Outlined / Status / 查询 / 24</title>
    <defs>
        <path d="M11.0833333,18.1666667 C14.9953333,18.1666667 18.1666667,14.9953333 18.1666667,11.0833333 C18.1666667,7.17133333 14.9953333,4 11.0833333,4 C7.17133333,4 4,7.17133333 4,11.0833333 C4,14.9953333 7.17133333,18.1666667 11.0833333,18.1666667 Z M11,6.5 C13.4852814,6.5 15.5,8.51471863 15.5,11 Z" id="path-1"></path>
    </defs>
    <g id="Icon-/-Outlined-/-Status-/-查询-/-24" stroke="none" fill="none" xlink:href="#path-1" stroke-linejoin="round" stroke-width="1.5">
        <path d="M11.0833333,18.1666667 C14.9953333,18.1666667 18.1666667,14.9953333 18.1666667,11.0833333 C18.1666667,7.17133333 14.9953333,4 11.0833333,4 C7.17133333,4 4,7.17133333 4,11.0833333 C4,14.9953333 7.17133333,18.1666667 11.0833333,18.1666667 Z" id="路径" stroke="#1A1A1A"></path>
        <line x1="16.1756667" y1="16.1757083" x2="19.7112083" y2="19.71125" id="路径" stroke="#1A1A1A" stroke-linecap="round"></line>
        <path d="M15.5,11 C15.5,8.51471863 13.4852814,6.5 11,6.5" id="路径" stroke="#1A1A1A" stroke-linecap="square"></path>
    </g>
</svg>