<?xml version="1.0" encoding="UTF-8"?>
<svg width="16px" height="16px" viewBox="0 0 16 16" version="1.1" xmlns="http://www.w3.org/2000/svg" xmlns:xlink="http://www.w3.org/1999/xlink">
    <title>Icon / Outlined / Status / 查询 / 16</title>
    <defs>
        <path d="M7.38888889,12.1111111 C9.99688889,12.1111111 12.1111111,9.99688889 12.1111111,7.38888889 C12.1111111,4.78088889 9.99688889,2.66666667 7.38888889,2.66666667 C4.78088889,2.66666667 2.66666667,4.78088889 2.66666667,7.38888889 C2.66666667,9.99688889 4.78088889,12.1111111 7.38888889,12.1111111 Z M7.33333333,4.33333333 C8.99018758,4.33333333 10.3333333,5.67647908 10.3333333,7.33333333 Z" id="path-1"></path>
    </defs>
    <g id="Icon-/-Outlined-/-Status-/-查询-/-16" stroke="none" fill="none" xlink:href="#path-1" stroke-linejoin="round" stroke-width="1">
        <path d="M7.38888889,12.1111111 C9.99688889,12.1111111 12.1111111,9.99688889 12.1111111,7.38888889 C12.1111111,4.78088889 9.99688889,2.66666667 7.38888889,2.66666667 C4.78088889,2.66666667 2.66666667,4.78088889 2.66666667,7.38888889 C2.66666667,9.99688889 4.78088889,12.1111111 7.38888889,12.1111111 Z" id="路径" stroke="#1A1A1A"></path>
        <line x1="10.7837778" y1="10.7838056" x2="13.1408056" y2="13.1408333" id="路径" stroke="#1A1A1A" stroke-linecap="round"></line>
        <path d="M10.3333333,7.33333333 C10.3333333,5.67647908 8.99018758,4.33333333 7.33333333,4.33333333" id="路径" stroke="#1A1A1A" stroke-linecap="square"></path>
    </g>
</svg>