<?xml version="1.0" encoding="UTF-8"?>
<svg width="16px" height="16px" viewBox="0 0 16 16" version="1.1" xmlns="http://www.w3.org/2000/svg" xmlns:xlink="http://www.w3.org/1999/xlink">
    <title>Icon / Outlined / Status / loading2 / 16</title>
    <defs>
        <path d="M14.5,8 C14.5,11.5898509 11.5898509,14.5 8,14.5 C4.41014913,14.5 1.5,11.5898509 1.5,8 C1.5,4.41014913 4.41014913,1.5 8,1.5 C11.5898509,1.5 14.5,4.41014913 14.5,8 Z" id="path-1"></path>
    </defs>
    <g id="Icon-/-Outlined-/-Status-/-loading2-/-16" stroke="none" fill="none" xlink:href="#path-1" stroke-linecap="square" stroke-width="1">
        <circle id="椭圆形" stroke="#E5E5E5" transform="translate(8, 8) scale(1, -1) translate(-8, -8)" cx="8" cy="8" r="6.5"></circle>
        <path d="M8,14.5 C11.5898509,14.5 14.5,11.5898509 14.5,8 C14.5,4.41014913 11.5898509,1.5 8,1.5 C4.41014913,1.5 1.5,4.41014913 1.5,8 C1.5,11.5898509 4.41014913,14.5 8,14.5 Z" id="椭圆形" stroke="#1A1A1A" stroke-dasharray="11,31" transform="translate(8, 8) scale(1, -1) translate(-8, -8)"></path>
    </g>
</svg>