<?xml version="1.0" encoding="UTF-8"?>
<svg width="24px" height="24px" viewBox="0 0 24 24" version="1.1" xmlns="http://www.w3.org/2000/svg" xmlns:xlink="http://www.w3.org/1999/xlink">
    <title>Icon / Outlined / Status / loading2 / 24</title>
    <defs>
        <path d="M22,12 C22,17.5228475 17.5228475,22 12,22 C6.4771525,22 2,17.5228475 2,12 C2,6.4771525 6.4771525,2 12,2 C17.5228475,2 22,6.4771525 22,12 Z" id="path-1"></path>
    </defs>
    <g id="Icon-/-Outlined-/-Status-/-loading2-/-24" stroke="none" fill="none" xlink:href="#path-1" stroke-linecap="square" stroke-width="1.5">
        <circle id="椭圆形" stroke="#E5E5E5" transform="translate(12, 12) scale(1, -1) translate(-12, -12)" cx="12" cy="12" r="10"></circle>
        <path d="M12,22 C17.5228475,22 22,17.5228475 22,12 C22,6.4771525 17.5228475,2 12,2 C6.4771525,2 2,6.4771525 2,12 C2,17.5228475 6.4771525,22 12,22 Z" id="椭圆形" stroke="#1A1A1A" stroke-dasharray="16,47" transform="translate(12, 12) scale(1, -1) translate(-12, -12)"></path>
    </g>
</svg>