<?xml version="1.0" encoding="UTF-8"?>
<svg width="20px" height="20px" viewBox="0 0 20 20" version="1.1" xmlns="http://www.w3.org/2000/svg" xmlns:xlink="http://www.w3.org/1999/xlink">
    <title>Icon / Outlined / Toggle / 多选/ 20</title>
    <defs>
        <path d="M16.25,1.25 C17.6307119,1.25 18.75,2.36928813 18.75,3.75 L18.75,16.25 C18.75,17.6307119 17.6307119,18.75 16.25,18.75 L3.75,18.75 C2.36928813,18.75 1.25,17.6307119 1.25,16.25 L1.25,3.75 C1.25,2.36928813 2.36928813,1.25 3.75,1.25 L16.25,1.25 Z" id="path-1"></path>
    </defs>
    <g id="Icon-/-Outlined-/-Toggle-/-多选/-20" stroke="none" fill="none" xlink:href="#path-1">
        <rect id="矩形-2" fill-opacity="0" fill="#000000" fill-rule="evenodd" x="1.25" y="1.25" width="17.5" height="17.5" rx="2.5"></rect>
        <rect id="矩形-2" stroke="#1A1A1A" stroke-width="1.25" x="1.875" y="1.875" width="16.25" height="16.25" rx="2.5"></rect>
        <path d="M8.41046429,13.4113393 L4.94796429,9.94883929 C4.73876786,9.73964286 4.73876786,9.40044643 4.94796429,9.19125 L5.13733929,9.00178571 C5.346625,8.79258929 5.68582143,8.79258929 5.89501786,9.00178571 L8.81073214,11.9175893 L14.287875,6.84758929 C14.5050179,6.64660714 14.8439464,6.65973214 15.0449286,6.87678571 L15.2268929,7.07339286 C15.427875,7.29053571 15.41475,7.62946429 15.1976071,7.83044643 L9.15323214,13.425625 C8.94198214,13.6211607 8.61394643,13.6148214 8.41046429,13.4113393" id="Fill-2备份" fill="#1A1A1A" fill-rule="evenodd"></path>
    </g>
</svg>