<?xml version="1.0" encoding="UTF-8"?>
<svg width="16px" height="16px" viewBox="0 0 16 16" version="1.1" xmlns="http://www.w3.org/2000/svg" xmlns:xlink="http://www.w3.org/1999/xlink">
    <title>Icon / Filled / Other / 微信 / 16</title>
    <defs>
        <path d="M15.5,15.5 L0.5,15.5 L0.5,0.5 L15.5,0.5 Z" id="path-1"></path>
    </defs>
    <g id="Icon-/-Filled-/-Other-/-微信-/-16" stroke="none" fill="none" xlink:href="#path-1" fill-rule="evenodd" stroke-width="1">
        <g id="微信-未关联" transform="translate(0.5, 0.5)" fill="#1A1A1A">
            <rect id="矩形" fill-rule="nonzero" opacity="0" x="0" y="0" width="15" height="15"></rect>
            <path d="M10.153125,5.086875 C10.325625,5.086875 10.4953125,5.1 10.6659375,5.11875 C10.2065625,2.979375 7.92,1.3903125 5.3090625,1.3903125 C2.390625,1.3903125 0,3.37875 0,5.9053125 C0,7.363125 0.795,8.5603125 2.124375,9.4903125 L1.59375,11.086875 L3.45,10.156875 C4.11375,10.2871875 4.64625,10.4221875 5.3090625,10.4221875 C5.4759375,10.4221875 5.6409375,10.4146875 5.8040625,10.4025 C5.7009375,10.0471875 5.64,9.6759375 5.64,9.28875 C5.6409375,6.969375 7.6321875,5.086875 10.153125,5.086875 L10.153125,5.086875 Z M7.299375,3.6478125 C7.700625,3.6478125 7.9640625,3.91125 7.9640625,4.310625 C7.9640625,4.708125 7.700625,4.974375 7.299375,4.974375 C6.9028125,4.974375 6.5034375,4.708125 6.5034375,4.310625 C6.5034375,3.9103125 6.901875,3.6478125 7.299375,3.6478125 Z M3.5840625,4.974375 C3.185625,4.974375 2.784375,4.708125 2.784375,4.310625 C2.784375,3.91125 3.185625,3.6478125 3.5840625,3.6478125 C3.9825,3.6478125 4.246875,3.9103125 4.246875,4.310625 C4.246875,4.708125 3.9825,4.974375 3.5840625,4.974375 Z" id="形状" fill-rule="nonzero"></path>
            <path d="M15,9.225 C15,7.1025 12.875625,5.3728125 10.4896875,5.3728125 C7.963125,5.3728125 5.9746875,7.1034375 5.9746875,9.225 C5.9746875,11.353125 7.9640625,13.0771875 10.4896875,13.0771875 C11.0184375,13.0771875 11.551875,12.945 12.0825,12.811875 L13.5384375,13.610625 L13.1390625,12.283125 C14.205,11.4825 15,10.4221875 15,9.225 Z M9.0253125,8.5603125 C8.761875,8.5603125 8.4946875,8.2978125 8.4946875,8.0296875 C8.4946875,7.7653125 8.761875,7.4990625 9.0253125,7.4990625 C9.4284375,7.4990625 9.69,7.7653125 9.69,8.0296875 C9.69,8.2978125 9.4284375,8.5603125 9.0253125,8.5603125 Z M11.945625,8.5603125 C11.6840625,8.5603125 11.4178125,8.2978125 11.4178125,8.0296875 C11.4178125,7.7653125 11.683125,7.4990625 11.945625,7.4990625 C12.345,7.4990625 12.6103125,7.7653125 12.6103125,8.0296875 C12.6103125,8.2978125 12.345,8.5603125 11.945625,8.5603125 Z" id="形状" fill-rule="nonzero"></path>
        </g>
    </g>
</svg>