<?xml version="1.0" encoding="UTF-8"?>
<svg width="20px" height="20px" viewBox="0 0 20 20" version="1.1" xmlns="http://www.w3.org/2000/svg" xmlns:xlink="http://www.w3.org/1999/xlink">
    <title>Icon / Filled / Other / 微信 / 20</title>
    <defs>
        <path d="M19.375,19.375 L0.625,19.375 L0.625,0.625 L19.375,0.625 Z" id="path-1"></path>
    </defs>
    <g id="Icon-/-Filled-/-Other-/-微信-/-20" stroke="none" fill="none" xlink:href="#path-1" fill-rule="evenodd" stroke-width="1">
        <g id="微信-未关联" transform="translate(0.625, 0.625)" fill="#1A1A1A">
            <rect id="矩形" fill-rule="nonzero" opacity="0" x="0" y="0" width="18.75" height="18.75"></rect>
            <path d="M12.6914063,6.35859375 C12.9070313,6.35859375 13.1191406,6.375 13.3324219,6.3984375 C12.7582031,3.72421875 9.9,1.73789062 6.63632812,1.73789062 C2.98828125,1.73789062 0,4.2234375 0,7.38164063 C0,9.20390625 0.99375,10.7003906 2.65546875,11.8628906 L1.9921875,13.8585938 L4.3125,12.6960938 C5.1421875,12.8589844 5.8078125,13.0277344 6.63632812,13.0277344 C6.84492188,13.0277344 7.05117187,13.0183594 7.25507813,13.003125 C7.12617188,12.5589844 7.05,12.0949219 7.05,11.6109375 C7.05117187,8.71171875 9.54023438,6.35859375 12.6914063,6.35859375 L12.6914063,6.35859375 Z M9.12421875,4.55976562 C9.62578125,4.55976562 9.95507812,4.8890625 9.95507812,5.38828125 C9.95507812,5.88515625 9.62578125,6.21796875 9.12421875,6.21796875 C8.62851563,6.21796875 8.12929687,5.88515625 8.12929687,5.38828125 C8.12929687,4.88789063 8.62734375,4.55976562 9.12421875,4.55976562 Z M4.48007813,6.21796875 C3.98203125,6.21796875 3.48046875,5.88515625 3.48046875,5.38828125 C3.48046875,4.8890625 3.98203125,4.55976562 4.48007813,4.55976562 C4.978125,4.55976562 5.30859375,4.88789063 5.30859375,5.38828125 C5.30859375,5.88515625 4.978125,6.21796875 4.48007813,6.21796875 Z" id="形状" fill-rule="nonzero"></path>
            <path d="M18.75,11.53125 C18.75,8.878125 16.0945312,6.71601562 13.1121094,6.71601562 C9.95390625,6.71601562 7.46835937,8.87929687 7.46835937,11.53125 C7.46835937,14.1914062 9.95507812,16.3464844 13.1121094,16.3464844 C13.7730469,16.3464844 14.4398437,16.18125 15.103125,16.0148437 L16.9230469,17.0132812 L16.4238281,15.3539062 C17.75625,14.353125 18.75,13.0277344 18.75,11.53125 Z M11.2816406,10.7003906 C10.9523437,10.7003906 10.6183594,10.3722656 10.6183594,10.0371094 C10.6183594,9.70664062 10.9523437,9.37382812 11.2816406,9.37382812 C11.7855469,9.37382812 12.1125,9.70664062 12.1125,10.0371094 C12.1125,10.3722656 11.7855469,10.7003906 11.2816406,10.7003906 Z M14.9320312,10.7003906 C14.6050781,10.7003906 14.2722656,10.3722656 14.2722656,10.0371094 C14.2722656,9.70664062 14.6039062,9.37382812 14.9320312,9.37382812 C15.43125,9.37382812 15.7628906,9.70664062 15.7628906,10.0371094 C15.7628906,10.3722656 15.43125,10.7003906 14.9320312,10.7003906 Z" id="形状" fill-rule="nonzero"></path>
        </g>
    </g>
</svg>