<?xml version="1.0" encoding="UTF-8"?>
<svg width="24px" height="24px" viewBox="0 0 24 24" version="1.1" xmlns="http://www.w3.org/2000/svg" xmlns:xlink="http://www.w3.org/1999/xlink">
    <title>Icon / Filled / Other / 微信 / 24</title>
    <defs>
        <path d="M23.25,23.25 L0.75,23.25 L0.75,0.75 L23.25,0.75 Z" id="path-1"></path>
    </defs>
    <g id="Icon-/-Filled-/-Other-/-微信-/-24" stroke="none" fill="none" xlink:href="#path-1" fill-rule="evenodd" stroke-width="1">
        <g id="微信-未关联" transform="translate(0.75, 0.75)" fill="#1A1A1A">
            <rect id="矩形" fill-rule="nonzero" opacity="0" x="0" y="0" width="22.5" height="22.5"></rect>
            <path d="M15.2296875,7.6303125 C15.4884375,7.6303125 15.7429688,7.65 15.9989062,7.678125 C15.3098437,4.4690625 11.88,2.08546875 7.96359375,2.08546875 C3.5859375,2.08546875 0,5.068125 0,8.85796875 C0,11.0446875 1.1925,12.8404688 3.1865625,14.2354687 L2.390625,16.6303125 L5.175,15.2353125 C6.170625,15.4307813 6.969375,15.6332812 7.96359375,15.6332812 C8.21390625,15.6332812 8.46140625,15.6220313 8.70609375,15.60375 C8.55140625,15.0707813 8.46,14.5139062 8.46,13.933125 C8.46140625,10.4540625 11.4482813,7.6303125 15.2296875,7.6303125 L15.2296875,7.6303125 Z M10.9490625,5.47171875 C11.5509375,5.47171875 11.9460938,5.866875 11.9460938,6.4659375 C11.9460938,7.0621875 11.5509375,7.4615625 10.9490625,7.4615625 C10.3542188,7.4615625 9.75515625,7.0621875 9.75515625,6.4659375 C9.75515625,5.86546875 10.3528125,5.47171875 10.9490625,5.47171875 Z M5.37609375,7.4615625 C4.7784375,7.4615625 4.1765625,7.0621875 4.1765625,6.4659375 C4.1765625,5.866875 4.7784375,5.47171875 5.37609375,5.47171875 C5.97375,5.47171875 6.3703125,5.86546875 6.3703125,6.4659375 C6.3703125,7.0621875 5.97375,7.4615625 5.37609375,7.4615625 Z" id="形状" fill-rule="nonzero"></path>
            <path d="M22.5,13.8375 C22.5,10.65375 19.3134375,8.05921875 15.7345312,8.05921875 C11.9446875,8.05921875 8.96203125,10.6551562 8.96203125,13.8375 C8.96203125,17.0296875 11.9460937,19.6157812 15.7345312,19.6157812 C16.5276562,19.6157812 17.3278125,19.4175 18.12375,19.2178125 L20.3076562,20.4159375 L19.7085937,18.4246875 C21.3075,17.22375 22.5,15.6332812 22.5,13.8375 Z M13.5379687,12.8404687 C13.1428125,12.8404687 12.7420312,12.4467187 12.7420312,12.0445312 C12.7420312,11.6479687 13.1428125,11.2485937 13.5379687,11.2485937 C14.1426562,11.2485937 14.535,11.6479687 14.535,12.0445312 C14.535,12.4467187 14.1426562,12.8404687 13.5379687,12.8404687 Z M17.9184375,12.8404687 C17.5260937,12.8404687 17.1267187,12.4467187 17.1267187,12.0445312 C17.1267187,11.6479687 17.5246875,11.2485937 17.9184375,11.2485937 C18.5175,11.2485937 18.9154687,11.6479687 18.9154687,12.0445312 C18.9154687,12.4467187 18.5175,12.8404687 17.9184375,12.8404687 Z" id="形状" fill-rule="nonzero"></path>
        </g>
    </g>
</svg>