<?xml version="1.0" encoding="UTF-8"?>
<svg width="16px" height="16px" viewBox="0 0 16 16" version="1.1" xmlns="http://www.w3.org/2000/svg" xmlns:xlink="http://www.w3.org/1999/xlink">
    <title>Icon / Filled / Operations / 点赞/ 16</title>
    <defs>
        <path d="M11.11742,3.481865 L10.30907,6.52244 C13.51982,6.52244 13.931045,6.386915 14.434145,6.943715 C14.715395,7.25519 14.843345,7.66979 14.722595,8.16239 C12.988595,14.336615 13.125545,14.69324 12.164795,14.76539 L4.328645,14.76779 C4.02197,14.76779 3.77327,14.51924 3.77327,14.212565 L3.77327,7.210115 C3.77327,6.99629 3.895595,6.80099 4.08902,6.709715 C5.74862,5.92634 7.92122,1.97474 7.92122,1.97474 C9.10157,0.373865 11.54357,1.53914 11.11742,3.481865 Z" id="path-1"></path>
    </defs>
    <g id="Icon-/-Filled-/-Operations-/-点赞/-16" stroke="none" fill="none" xlink:href="#path-1" stroke-linecap="round" stroke-linejoin="round" stroke-width="1">
        <path d="M11.11742,3.481865 L10.30907,6.52244 C13.51982,6.52244 13.931045,6.386915 14.434145,6.943715 C14.715395,7.25519 14.843345,7.66979 14.722595,8.16239 C12.988595,14.336615 13.125545,14.69324 12.164795,14.76539 L4.328645,14.76779 C4.02197,14.76779 3.77327,14.51924 3.77327,14.212565 L3.77327,7.210115 C3.77327,6.99629 3.895595,6.80099 4.08902,6.709715 C5.74862,5.92634 7.92122,1.97474 7.92122,1.97474 C9.10157,0.373865 11.54357,1.53914 11.11742,3.481865 Z" id="Stroke-2" stroke="#1A1A1A" fill="#1A1A1A" fill-rule="evenodd"></path>
        <line x1="1.4875" y1="6.875" x2="1.4875" y2="14.9" id="Stroke-4" stroke="#1A1A1A"></line>
    </g>
</svg>