<?xml version="1.0" encoding="UTF-8"?>
<svg width="20px" height="20px" viewBox="0 0 20 20" version="1.1" xmlns="http://www.w3.org/2000/svg" xmlns:xlink="http://www.w3.org/1999/xlink">
    <title>Icon / Outlined / Status / 查询 / 20</title>
    <defs>
        <path d="M9.23611111,15.1388889 C12.4961111,15.1388889 15.1388889,12.4961111 15.1388889,9.23611111 C15.1388889,5.97611111 12.4961111,3.33333333 9.23611111,3.33333333 C5.97611111,3.33333333 3.33333333,5.97611111 3.33333333,9.23611111 C3.33333333,12.4961111 5.97611111,15.1388889 9.23611111,15.1388889 Z M9.16666667,5.41666667 C11.2377345,5.41666667 12.9166667,7.09559885 12.9166667,9.16666667 Z" id="path-1"></path>
    </defs>
    <g id="Icon-/-Outlined-/-Status-/-查询-/-20" stroke="none" fill="none" xlink:href="#path-1" stroke-linejoin="round" stroke-width="1.25">
        <path d="M9.23611111,15.1388889 C12.4961111,15.1388889 15.1388889,12.4961111 15.1388889,9.23611111 C15.1388889,5.97611111 12.4961111,3.33333333 9.23611111,3.33333333 C5.97611111,3.33333333 3.33333333,5.97611111 3.33333333,9.23611111 C3.33333333,12.4961111 5.97611111,15.1388889 9.23611111,15.1388889 Z" id="路径" stroke="#1A1A1A"></path>
        <line x1="13.4797222" y1="13.4797569" x2="16.4260069" y2="16.4260417" id="路径" stroke="#1A1A1A" stroke-linecap="round"></line>
        <path d="M12.9166667,9.16666667 C12.9166667,7.09559885 11.2377345,5.41666667 9.16666667,5.41666667" id="路径" stroke="#1A1A1A" stroke-linecap="square"></path>
    </g>
</svg>