<?xml version="1.0" encoding="UTF-8"?>
<svg width="16px" height="16px" viewBox="0 0 16 16" version="1.1" xmlns="http://www.w3.org/2000/svg" xmlns:xlink="http://www.w3.org/1999/xlink">
    <title>Icon / Filled / Toggle / 多选 / 16</title>
    <defs>
        <path d="M13,1 C14.1045695,1 15,1.8954305 15,3 L15,13 C15,14.1045695 14.1045695,15 13,15 L3,15 C1.8954305,15 1,14.1045695 1,13 L1,3 C1,1.8954305 1.8954305,1 3,1 L13,1 Z" id="path-1"></path>
    </defs>
    <g id="Icon-/-Filled-/-Toggle-/-多选-/-16" stroke="none" fill="none" xlink:href="#path-1" fill-rule="evenodd">
        <rect id="矩形-2" fill="#1A1A1A" x="1" y="1" width="14" height="14" rx="2"></rect>
        <path d="M6.72837143,10.7290714 L3.95837143,7.95907143 C3.79101429,7.79171429 3.79101429,7.52035714 3.95837143,7.353 L4.10987143,7.20142857 C4.2773,7.03407143 4.54865714,7.03407143 4.71601429,7.20142857 L7.04858571,9.53407143 L11.4303,5.47807143 C11.6040143,5.31728571 11.8751571,5.32778571 12.0359429,5.50142857 L12.1815143,5.65871429 C12.3423,5.83242857 12.3318,6.10357143 12.1580857,6.26435714 L7.32258571,10.7405 C7.15358571,10.8969286 6.89115714,10.8918571 6.72837143,10.7290714" id="Fill-2备份" fill="#FFFFFF"></path>
    </g>
</svg>