<?xml version="1.0" encoding="UTF-8"?>
<svg width="24px" height="24px" viewBox="0 0 24 24" version="1.1" xmlns="http://www.w3.org/2000/svg" xmlns:xlink="http://www.w3.org/1999/xlink">
    <title>Icon / Filled / Toggle / 多选 / 24</title>
    <defs>
        <path d="M19.5,1.5 C21.1568542,1.5 22.5,2.84314575 22.5,4.5 L22.5,19.5 C22.5,21.1568542 21.1568542,22.5 19.5,22.5 L4.5,22.5 C2.84314575,22.5 1.5,21.1568542 1.5,19.5 L1.5,4.5 C1.5,2.84314575 2.84314575,1.5 4.5,1.5 L19.5,1.5 Z" id="path-1"></path>
    </defs>
    <g id="Icon-/-Filled-/-Toggle-/-多选-/-24" stroke="none" fill="none" xlink:href="#path-1" fill-rule="evenodd">
        <rect id="矩形-2" fill="#1A1A1A" x="1.5" y="1.5" width="21" height="21" rx="3"></rect>
        <path d="M10.0925571,16.0936071 L5.93755714,11.9386071 C5.68652143,11.6875714 5.68652143,11.2805357 5.93755714,11.0295 L6.16480714,10.8021429 C6.41595,10.5511071 6.82298571,10.5511071 7.07402143,10.8021429 L10.5728786,14.3011071 L17.14545,8.21710714 C17.4060214,7.97592857 17.8127357,7.99167857 18.0539143,8.25214286 L18.2722714,8.48807143 C18.51345,8.74864286 18.4977,9.15535714 18.2371286,9.39653571 L10.9838786,16.11075 C10.7303786,16.3453929 10.3367357,16.3377857 10.0925571,16.0936071" id="Fill-2备份" fill="#FFFFFF"></path>
    </g>
</svg>