<?xml version="1.0" encoding="UTF-8"?>
<svg width="16px" height="16px" viewBox="0 0 16 16" version="1.1" xmlns="http://www.w3.org/2000/svg" xmlns:xlink="http://www.w3.org/1999/xlink">
    <title>Icon / Outlined / Data / Skill 广场 / 16</title>
    <g id="Icon-/-Outlined-/-Data-/-Skill-广场-/-16" stroke="none" fill="none">
        <path d="M14.25,2 C14.6398481,2 14.9602243,2.29744404 14.9965667,2.67776999 L15,2.75 L15,10.25 C15,10.6398481 14.702556,10.9602243 14.32223,10.9965667 L14.25,11 L10,11 L10,13 L12.75,13 C13.0261424,13 13.25,13.2238576 13.25,13.5 C13.25,13.7761424 13.0261424,14 12.75,14 L3.25,14 C2.97385763,14 2.75,13.7761424 2.75,13.5 C2.75,13.2238576 2.97385763,13 3.25,13 L6,13 L6,11 L1.75,11 C1.36015194,11 1.03977566,10.702556 1.00343329,10.32223 L1,10.25 L1,2.75 C1,2.36015194 1.29744404,2.03977566 1.67776999,2.00343329 L1.75,2 L14.25,2 Z M9,11 L7,11 L7,13 L9,13 L9,11 Z M14,3 L2,3 L2,10 L14,10 L14,3 Z" id="形状" fill="#1A1A1A" fill-rule="evenodd"></path>
        <path d="M9.13465867,6.58343744 L6.7149769,9.2 L7.41979784,7.08921881 C7.42778049,7.06484381 7.40993688,7.04000006 7.38411066,7.04000006 L6.70088988,7.04000006 C6.48254097,7.04000006 6.33697502,6.81453131 6.42713199,6.61578131 L7.35593661,4.57578125 C7.40477164,4.46890625 7.51183302,4.4 7.62969448,4.4 L9.29821501,4.4 C9.43263507,4.4 9.51686819,4.54525881 9.45010043,4.66192422 L8.6707258,6.02374997 C8.65663877,6.04859372 8.6744824,6.07999997 8.70312602,6.07999997 L8.91349226,6.07999997 C9.17551095,6.07999997 9.31215521,6.39124994 9.13465867,6.58343744 Z" id="路径" fill="#1A1A1A" fill-rule="nonzero"></path>
    </g>
</svg>