<?xml version="1.0" encoding="UTF-8"?>
<svg width="20px" height="20px" viewBox="0 0 20 20" version="1.1" xmlns="http://www.w3.org/2000/svg" xmlns:xlink="http://www.w3.org/1999/xlink">
    <title>Icon / Outlined / Data / Skill 广场 / 20</title>
    <g id="Icon-/-Outlined-/-Data-/-Skill-广场-/-20" stroke="none" fill="none">
        <path d="M17.8125,2.5 C18.2998101,2.5 18.7002804,2.87180505 18.7457084,3.34721249 L18.75,3.4375 L18.75,12.8125 C18.75,13.2998101 18.3781949,13.7002804 17.9027875,13.7457084 L17.8125,13.75 L12.5,13.75 L12.5,16.25 L15.9375,16.25 C16.282678,16.25 16.5625,16.529822 16.5625,16.875 C16.5625,17.220178 16.282678,17.5 15.9375,17.5 L4.0625,17.5 C3.71732203,17.5 3.4375,17.220178 3.4375,16.875 C3.4375,16.529822 3.71732203,16.25 4.0625,16.25 L7.5,16.25 L7.5,13.75 L2.1875,13.75 C1.70018993,13.75 1.29971958,13.3781949 1.25429161,12.9027875 L1.25,12.8125 L1.25,3.4375 C1.25,2.95018993 1.62180505,2.54971958 2.09721249,2.50429161 L2.1875,2.5 L17.8125,2.5 Z M11.25,13.75 L8.75,13.75 L8.75,16.25 L11.25,16.25 L11.25,13.75 Z M17.5,3.75 L2.5,3.75 L2.5,12.5 L17.5,12.5 L17.5,3.75 Z" id="形状" fill="#1A1A1A" fill-rule="evenodd"></path>
        <path d="M11.4183233,8.2292968 L8.39372113,11.5 L9.2747473,8.86152351 C9.28472561,8.83105476 9.26242109,8.80000007 9.23013832,8.80000007 L8.37611235,8.80000007 C8.10317621,8.80000007 7.92121878,8.51816414 8.03391499,8.26972663 L9.19492077,5.71972656 C9.25596455,5.58613282 9.38979127,5.5 9.53711809,5.5 L11.6227688,5.5 C11.7907938,5.5 11.8960852,5.68157352 11.8126255,5.82740528 L10.8384072,7.52968746 C10.8207985,7.56074215 10.843103,7.59999996 10.8789075,7.59999996 L11.1418653,7.59999996 C11.4693887,7.59999996 11.640194,7.98906243 11.4183233,8.2292968 Z" id="路径" fill="#1A1A1A" fill-rule="nonzero"></path>
    </g>
</svg>