<?xml version="1.0" encoding="UTF-8"?>
<svg width="104px" height="30px" viewBox="0 0 104 30" version="1.1" xmlns="http://www.w3.org/2000/svg" xmlns:xlink="http://www.w3.org/1999/xlink">
    <title>App/Bottom 按钮/Extended FAB/橙</title>
    <defs>
        <path d="M15,0 L89,0 C97.2842712,0 104,6.71572875 104,15 C104,23.2842712 97.2842712,30 89,30 L15,30 C6.71572875,30 0,23.2842712 0,15 C0,6.71572875 6.71572875,0 15,0 Z" id="path-1"></path>
    </defs>
    <g id="App/Bottom-按钮/Extended-FAB/橙" stroke="none" fill="none" xlink:href="#path-1">
        <use fill-opacity="0.1" fill="#FF5500" fill-rule="evenodd" xlink:href="#path-1"></use>
        <text id="深度思考" fill-rule="nonzero" font-family="PingFangSC-Regular, PingFang SC" font-size="15" font-weight="normal" line-spacing="24" fill="#FF5500">
            <tspan x="32" y="19">深度思考</tspan>
        </text>
        <g id="icon/深度思考" transform="translate(12, 7)" fill="#FF5500" fill-rule="nonzero">
            <path d="M9.02857143,1.07380467 L12.1275283,2.85186223 L12.0976299,2.86958837 C12.4039418,2.68444627 12.7612661,2.57820011 13.1428571,2.57820011 C14.2789858,2.57820011 15.2,3.52002882 15.2,4.68183342 C15.2,5.43294339 14.8150474,6.09211094 14.2358879,6.46427977 L14.2353829,10.0333595 C14.2353829,10.7635053 13.8432937,11.4381878 13.2068115,11.8032607 L9.98463839,13.6519445 C9.74634163,14.5441636 8.94806759,15.2 8,15.2 C7.05193241,15.2 6.25365837,14.5441636 6.01536161,13.6519445 L2.79318852,11.8032607 C2.15670631,11.4381878 1.76461709,10.7635053 1.76461709,10.0333595 L1.76397844,6.46419385 C1.18811067,6.09750609 0.8,5.43601811 0.8,4.68183342 C0.8,3.52002882 1.72101423,2.57820011 2.85714286,2.57820011 C3.23544076,2.57820011 3.58988899,2.68262037 3.89442828,2.8648127 L3.87100572,2.85101067 L6.97142857,1.07380467 C7.60791079,0.708731775 8.39208921,0.708731775 9.02857143,1.07380467 Z M8,12.04455 C7.43193569,12.04455 6.97142857,12.5154644 6.97142857,13.0963667 C6.97142857,13.677269 7.43193569,14.1481833 8,14.1481833 C8.56806431,14.1481833 9.02857143,13.677269 9.02857143,13.0963667 C9.02857143,12.5154644 8.56806431,12.04455 8,12.04455 Z M2.85714286,6.78546674 L2.76248429,6.78327922 C2.77259086,6.7837473 2.78271643,6.7841408 2.79286049,6.78445921 L2.79318852,10.0333595 C2.79318852,10.3984324 2.98923313,10.7357736 3.30747424,10.9183101 L6.03244332,12.480423 L6.02914139,12.4915776 C6.23792446,11.7790929 6.80608192,11.2254338 7.518375,11.0507036 L7.48483191,11.0592395 L7.48571429,7.92599266 L4.39303502,6.08132299 L4.42483244,6.04398661 C4.04750021,6.49766051 3.48518912,6.78546674 2.85714286,6.78546674 Z M11.5828242,6.05313939 L11.6060945,6.08032408 L8.51361709,7.924 L8.51376785,11.0588708 L8.46952043,11.047774 C9.18747715,11.2191735 9.76089422,11.7750615 9.97085861,12.4915776 L9.96755668,12.480423 L12.6925258,10.9183101 C13.0107669,10.7357736 13.2068115,10.3984324 13.2068115,10.0333595 L13.2061388,6.78449038 C13.1851227,6.78513973 13.1640272,6.78546674 13.1428571,6.78546674 C12.5190449,6.78546674 11.9600845,6.50152796 11.5828242,6.05313939 Z M7.48571429,1.95875529 L4.62196386,3.6003295 C4.80756394,3.91635948 4.91428571,4.28635169 4.91428571,4.68183342 C4.91428571,4.8595254 4.89274125,5.03207168 4.85217781,5.19688968 L4.85886514,5.16890353 L7.99761709,7.039 L11.14044,5.16589637 L11.1478222,5.19688968 C11.1072588,5.03207168 11.0857143,4.8595254 11.0857143,4.68183342 C11.0857143,4.32824072 11.1710256,3.99502385 11.3217483,3.70253258 L11.3774582,3.60131419 L8.51428571,1.95875529 C8.19604461,1.77621884 7.80395539,1.77621884 7.48571429,1.95875529 Z M2.85714286,3.63001677 C2.28907854,3.63001677 1.82857143,4.10093112 1.82857143,4.68183342 C1.82857143,5.26273572 2.28907854,5.73365008 2.85714286,5.73365008 C3.42520717,5.73365008 3.88571429,5.26273572 3.88571429,4.68183342 C3.88571429,4.10093112 3.42520717,3.63001677 2.85714286,3.63001677 Z M13.1428571,3.63001677 C12.5747928,3.63001677 12.1142857,4.10093112 12.1142857,4.68183342 C12.1142857,5.26273572 12.5747928,5.73365008 13.1428571,5.73365008 C13.7109215,5.73365008 14.1714286,5.26273572 14.1714286,4.68183342 C14.1714286,4.10093112 13.7109215,3.63001677 13.1428571,3.63001677 Z" id="形状结合备份-3"></path>
        </g>
    </g>
</svg>